<svg id="svg" version="1.1" xmlns="http://www.w3.org/2000/svg" xmlns:xlink="http://www.w3.org/1999/xlink" width="400" height="400" viewBox="0, 0, 400,400"><g id="svgg"><path id="path0" d="M153.843 89.433 C 153.709 89.781,153.600 103.713,153.600 120.393 L 153.600 150.720 152.160 152.160 L 150.720 153.600 120.393 153.600 C 91.249 153.600,88.800 153.664,88.800 154.428 C 88.800 154.616,98.610 164.576,110.600 176.562 L 132.400 198.353 132.400 200.104 C 132.400 201.404,132.168 202.074,131.500 202.700 C 131.005 203.165,130.384 203.782,130.119 204.072 C 129.855 204.363,129.405 204.816,129.119 205.081 C 128.834 205.345,128.384 205.795,128.119 206.081 C 127.855 206.366,127.405 206.816,127.119 207.081 C 126.834 207.345,126.384 207.795,126.119 208.081 C 125.855 208.366,125.405 208.816,125.119 209.081 C 124.834 209.345,124.384 209.795,124.119 210.081 C 123.855 210.366,123.405 210.816,123.119 211.081 C 122.834 211.345,122.384 211.795,122.119 212.081 C 121.855 212.366,121.405 212.816,121.119 213.081 C 120.834 213.345,120.384 213.795,120.119 214.081 C 119.855 214.366,119.405 214.816,119.119 215.081 C 118.834 215.345,118.384 215.795,118.119 216.081 C 117.855 216.366,117.405 216.816,117.119 217.081 C 116.834 217.345,116.384 217.795,116.119 218.081 C 115.855 218.366,115.405 218.816,115.119 219.081 C 114.834 219.345,114.384 219.795,114.119 220.081 C 113.855 220.366,113.405 220.816,113.119 221.081 C 112.834 221.345,112.384 221.795,112.119 222.081 C 111.855 222.366,111.405 222.816,111.119 223.081 C 110.834 223.345,110.384 223.795,110.119 224.081 C 109.855 224.366,109.405 224.816,109.119 225.081 C 108.834 225.345,108.384 225.795,108.119 226.081 C 107.855 226.366,107.405 226.816,107.119 227.081 C 106.834 227.345,106.384 227.795,106.119 228.081 C 105.855 228.366,105.405 228.816,105.119 229.081 C 104.834 229.345,104.384 229.795,104.119 230.081 C 103.855 230.366,103.405 230.816,103.119 231.081 C 102.834 231.345,102.384 231.795,102.119 232.081 C 101.855 232.366,101.405 232.816,101.119 233.081 C 100.834 233.345,100.384 233.795,100.119 234.081 C 99.855 234.366,99.405 234.816,99.119 235.081 C 98.834 235.345,98.384 235.795,98.119 236.081 C 97.855 236.366,97.405 236.816,97.119 237.081 C 96.834 237.345,96.384 237.795,96.119 238.081 C 95.855 238.366,95.405 238.816,95.119 239.081 C 94.834 239.345,94.384 239.795,94.119 240.081 C 93.855 240.366,93.405 240.816,93.119 241.081 C 92.834 241.345,92.384 241.795,92.119 242.081 C 91.855 242.366,91.405 242.816,91.119 243.081 C 90.834 243.345,90.385 243.822,90.122 244.140 C 89.860 244.458,89.422 244.793,89.150 244.883 C 88.868 244.977,88.767 245.337,88.915 245.724 C 89.156 246.351,91.425 246.400,119.947 246.400 L 150.720 246.400 152.160 247.840 L 153.600 249.280 153.600 280.053 C 153.600 306.651,153.679 310.855,154.184 311.049 C 154.573 311.198,162.031 304.009,176.606 289.436 C 198.155 267.889,198.465 267.600,200.039 267.600 C 201.613 267.600,201.924 267.890,223.438 289.400 C 235.431 301.390,245.503 311.200,245.821 311.200 C 246.321 311.200,246.400 306.983,246.400 280.205 L 246.400 249.211 247.900 247.816 L 249.400 246.422 280.300 246.411 C 306.990 246.401,311.200 246.321,311.200 245.821 C 311.200 245.503,301.390 235.431,289.400 223.438 C 267.890 201.924,267.600 201.613,267.600 200.039 C 267.600 198.465,267.889 198.155,289.436 176.606 C 304.009 162.031,311.198 154.573,311.049 154.184 C 310.856 153.679,306.651 153.599,280.113 153.589 L 249.400 153.578 247.900 152.184 L 246.400 150.789 246.400 119.795 C 246.400 89.427,246.384 88.800,245.627 88.800 C 245.202 88.800,244.743 89.151,244.606 89.580 C 244.470 90.008,244.017 90.467,243.600 90.600 C 243.183 90.733,242.733 91.183,242.600 91.600 C 242.467 92.017,242.017 92.467,241.600 92.600 C 241.183 92.733,240.733 93.183,240.600 93.600 C 240.467 94.017,240.017 94.467,239.600 94.600 C 239.183 94.733,238.733 95.183,238.600 95.600 C 238.467 96.017,238.017 96.467,237.600 96.600 C 237.183 96.733,236.733 97.183,236.600 97.600 C 236.467 98.017,236.017 98.467,235.600 98.600 C 235.183 98.733,234.733 99.183,234.600 99.600 C 234.467 100.017,234.017 100.467,233.600 100.600 C 233.183 100.733,232.733 101.183,232.600 101.600 C 232.467 102.017,232.017 102.467,231.600 102.600 C 231.183 102.733,230.733 103.183,230.600 103.600 C 230.467 104.017,230.017 104.467,229.600 104.600 C 229.183 104.733,228.733 105.183,228.600 105.600 C 228.467 106.017,228.017 106.467,227.600 106.600 C 227.183 106.733,226.733 107.183,226.600 107.600 C 226.467 108.017,226.017 108.467,225.600 108.600 C 225.183 108.733,224.733 109.183,224.600 109.600 C 224.467 110.017,224.017 110.467,223.600 110.600 C 223.183 110.733,222.733 111.183,222.600 111.600 C 222.467 112.017,222.017 112.467,221.600 112.600 C 221.183 112.733,220.733 113.183,220.600 113.600 C 220.467 114.017,220.017 114.467,219.600 114.600 C 219.183 114.733,218.733 115.183,218.600 115.600 C 218.467 116.017,218.017 116.467,217.600 116.600 C 217.183 116.733,216.733 117.183,216.600 117.600 C 216.467 118.017,216.017 118.467,215.600 118.600 C 215.183 118.733,214.733 119.183,214.600 119.600 C 214.467 120.017,214.017 120.467,213.600 120.600 C 213.183 120.733,212.733 121.183,212.600 121.600 C 212.467 122.017,212.017 122.467,211.600 122.600 C 211.183 122.733,210.733 123.183,210.600 123.600 C 210.467 124.017,210.017 124.467,209.600 124.600 C 209.183 124.733,208.733 125.183,208.600 125.600 C 208.467 126.017,208.017 126.467,207.600 126.600 C 207.183 126.733,206.733 127.183,206.600 127.600 C 206.467 128.017,206.017 128.467,205.600 128.600 C 205.183 128.733,204.730 129.192,204.594 129.620 C 204.457 130.049,204.177 130.400,203.970 130.400 C 203.764 130.400,203.203 130.850,202.725 131.400 C 202.045 132.182,201.474 132.400,200.104 132.400 L 198.353 132.400 176.562 110.600 C 154.456 88.485,154.272 88.314,153.843 89.433 M209.960 142.643 C 214.712 147.397,219.050 151.489,219.600 151.736 C 220.240 152.024,225.300 152.260,233.667 152.393 C 240.854 152.507,246.884 152.750,247.067 152.932 C 247.250 153.115,247.513 159.055,247.650 166.132 C 247.963 182.189,246.887 179.554,257.442 190.115 C 264.166 196.842,266.400 199.318,266.400 200.042 C 266.400 200.766,264.168 203.237,257.435 209.965 C 252.241 215.155,248.352 219.361,248.190 219.962 C 248.037 220.533,247.796 226.790,247.655 233.868 C 247.515 240.945,247.250 246.885,247.068 247.068 C 246.885 247.250,240.945 247.495,233.868 247.612 C 218.095 247.872,220.399 246.908,209.603 257.760 C 203.396 263.999,200.752 266.400,200.090 266.400 C 199.429 266.400,196.703 263.932,190.316 257.552 C 184.904 252.146,180.980 248.540,180.229 248.282 C 179.532 248.044,173.429 247.762,166.132 247.631 C 159.055 247.504,153.115 247.250,152.932 247.067 C 152.750 246.884,152.507 240.854,152.393 233.667 C 152.257 225.105,152.027 220.240,151.724 219.557 C 151.471 218.983,147.379 214.629,142.631 209.882 C 135.291 202.542,134.000 201.074,134.000 200.071 C 134.000 199.069,135.298 197.587,142.613 190.238 C 147.350 185.479,151.442 181.093,151.706 180.492 C 152.031 179.751,152.252 175.198,152.393 166.333 C 152.507 159.146,152.750 153.116,152.933 152.933 C 153.116 152.750,159.146 152.509,166.333 152.398 C 175.309 152.260,179.742 152.045,180.492 151.711 C 181.093 151.444,185.479 147.350,190.238 142.613 C 197.697 135.188,199.058 134.000,200.105 134.000 C 201.153 134.000,202.501 135.182,209.960 142.643 " stroke="none" fill="#f48323" fill-rule="evenodd"></path><path id="path1" d="M152.000 40.814 L 152.000 81.628 151.139 81.168 C 150.384 80.763,150.313 80.796,150.557 81.431 C 150.812 82.096,150.776 82.104,150.117 81.530 C 149.723 81.186,149.130 80.789,148.800 80.648 C 148.470 80.507,148.605 80.466,149.100 80.558 C 150.219 80.766,150.225 80.598,149.141 79.483 C 148.368 78.688,148.310 78.678,148.558 79.378 C 148.813 80.095,148.779 80.107,148.117 79.530 C 147.723 79.186,147.130 78.789,146.800 78.648 C 146.470 78.507,146.605 78.466,147.100 78.558 C 148.219 78.766,148.225 78.598,147.141 77.483 C 146.368 76.688,146.310 76.678,146.558 77.378 C 146.813 78.095,146.779 78.107,146.117 77.530 C 145.723 77.186,145.130 76.789,144.800 76.648 C 144.470 76.507,144.605 76.466,145.100 76.558 C 146.219 76.766,146.225 76.598,145.141 75.483 C 144.368 74.688,144.310 74.678,144.558 75.378 C 144.813 76.095,144.779 76.107,144.117 75.530 C 143.723 75.186,143.130 74.789,142.800 74.648 C 142.470 74.507,142.605 74.466,143.100 74.558 C 144.219 74.766,144.225 74.598,143.141 73.483 C 142.368 72.688,142.310 72.678,142.558 73.378 C 142.813 74.095,142.779 74.107,142.117 73.530 C 141.723 73.186,141.130 72.789,140.800 72.648 C 140.470 72.507,140.605 72.466,141.100 72.558 C 142.219 72.766,142.225 72.598,141.141 71.483 C 140.368 70.688,140.310 70.678,140.558 71.378 C 140.813 72.095,140.779 72.107,140.117 71.530 C 139.723 71.186,139.130 70.789,138.800 70.648 C 138.470 70.507,138.605 70.466,139.100 70.558 C 140.219 70.766,140.225 70.598,139.141 69.483 C 138.368 68.688,138.310 68.678,138.558 69.378 C 138.813 70.095,138.779 70.107,138.117 69.530 C 137.723 69.186,137.130 68.789,136.800 68.648 C 136.470 68.507,136.605 68.466,137.100 68.558 C 138.219 68.766,138.225 68.598,137.141 67.483 C 136.368 66.688,136.310 66.678,136.558 67.378 C 136.813 68.095,136.779 68.107,136.117 67.530 C 135.723 67.186,135.130 66.789,134.800 66.648 C 134.470 66.507,134.605 66.466,135.100 66.558 C 136.219 66.766,136.225 66.598,135.141 65.483 C 134.368 64.688,134.310 64.678,134.558 65.378 C 134.813 66.095,134.779 66.107,134.117 65.530 C 133.723 65.186,133.130 64.789,132.800 64.648 C 132.470 64.507,132.605 64.466,133.100 64.558 C 134.219 64.766,134.225 64.598,133.141 63.483 C 132.368 62.688,132.310 62.678,132.558 63.378 C 132.813 64.095,132.779 64.107,132.117 63.530 C 131.723 63.186,131.130 62.789,130.800 62.648 C 130.470 62.507,130.605 62.466,131.100 62.558 C 132.219 62.766,132.225 62.598,131.141 61.483 C 130.368 60.688,130.310 60.678,130.558 61.378 C 130.813 62.095,130.779 62.107,130.117 61.530 C 129.723 61.186,129.130 60.789,128.800 60.648 C 128.470 60.507,128.605 60.466,129.100 60.558 C 130.219 60.766,130.225 60.598,129.141 59.483 C 128.368 58.688,128.310 58.678,128.558 59.378 C 128.813 60.095,128.779 60.107,128.117 59.530 C 127.723 59.186,127.130 58.789,126.800 58.648 C 126.470 58.507,126.605 58.466,127.100 58.558 C 128.219 58.766,128.225 58.598,127.141 57.483 C 126.368 56.688,126.310 56.678,126.558 57.378 C 126.813 58.095,126.779 58.107,126.117 57.530 C 125.723 57.186,125.130 56.789,124.800 56.648 C 124.470 56.507,124.605 56.466,125.100 56.558 C 126.219 56.766,126.225 56.598,125.141 55.483 C 124.368 54.688,124.310 54.678,124.558 55.378 C 124.813 56.095,124.779 56.107,124.117 55.530 C 123.723 55.186,123.130 54.789,122.800 54.648 C 122.470 54.507,122.605 54.466,123.100 54.558 C 124.219 54.766,124.225 54.598,123.141 53.483 C 122.368 52.688,122.310 52.678,122.558 53.378 C 122.813 54.095,122.779 54.107,122.117 53.530 C 121.723 53.186,121.130 52.789,120.800 52.648 C 120.470 52.507,120.605 52.466,121.100 52.558 C 122.219 52.766,122.225 52.598,121.141 51.483 C 120.368 50.688,120.310 50.678,120.558 51.378 C 120.813 52.095,120.779 52.107,120.117 51.530 C 119.723 51.186,119.130 50.789,118.800 50.648 C 118.470 50.507,118.605 50.466,119.100 50.558 C 120.219 50.766,120.225 50.598,119.141 49.483 C 118.368 48.688,118.310 48.678,118.558 49.378 C 118.813 50.095,118.779 50.107,118.117 49.530 C 117.723 49.186,117.130 48.789,116.800 48.648 C 116.470 48.507,116.605 48.466,117.100 48.558 C 118.219 48.766,118.225 48.598,117.141 47.483 C 116.368 46.688,116.310 46.678,116.558 47.378 C 116.813 48.095,116.779 48.107,116.117 47.530 C 115.723 47.186,115.130 46.789,114.800 46.648 C 114.470 46.507,114.605 46.466,115.100 46.558 C 116.219 46.766,116.225 46.598,115.141 45.483 C 114.368 44.688,114.310 44.678,114.558 45.378 C 114.813 46.095,114.779 46.107,114.117 45.530 C 113.723 45.186,113.130 44.789,112.800 44.648 C 112.470 44.507,112.605 44.466,113.100 44.558 C 114.219 44.766,114.225 44.598,113.141 43.483 C 112.368 42.688,112.310 42.678,112.558 43.378 C 112.813 44.095,112.779 44.107,112.117 43.530 C 111.723 43.186,111.130 42.789,110.800 42.648 C 110.470 42.507,110.605 42.466,111.100 42.558 C 112.219 42.766,112.225 42.598,111.141 41.483 C 110.368 40.688,110.310 40.678,110.558 41.378 C 110.813 42.095,110.779 42.107,110.117 41.530 C 109.723 41.186,109.130 40.789,108.800 40.648 C 108.470 40.507,108.605 40.466,109.100 40.558 C 110.219 40.766,110.225 40.598,109.141 39.483 C 108.368 38.688,108.310 38.678,108.558 39.378 C 108.813 40.095,108.779 40.107,108.117 39.530 C 107.723 39.186,107.130 38.789,106.800 38.648 C 106.470 38.507,106.605 38.466,107.100 38.558 C 108.219 38.766,108.225 38.598,107.141 37.483 C 106.368 36.688,106.310 36.678,106.558 37.378 C 106.813 38.095,106.779 38.107,106.117 37.530 C 105.723 37.186,105.130 36.789,104.800 36.648 C 104.470 36.507,104.605 36.466,105.100 36.558 C 106.219 36.766,106.225 36.598,105.141 35.483 C 104.368 34.688,104.310 34.678,104.558 35.378 C 104.813 36.095,104.779 36.107,104.117 35.530 C 103.723 35.186,103.130 34.789,102.800 34.648 C 102.470 34.507,102.605 34.466,103.100 34.558 C 104.219 34.766,104.225 34.598,103.141 33.483 C 102.368 32.688,102.310 32.678,102.558 33.378 C 102.813 34.095,102.779 34.107,102.117 33.530 C 101.723 33.186,101.130 32.789,100.800 32.648 C 100.470 32.507,100.605 32.466,101.100 32.558 C 102.219 32.766,102.225 32.598,101.141 31.483 C 100.368 30.688,100.310 30.678,100.558 31.378 C 100.813 32.095,100.779 32.107,100.117 31.530 C 99.723 31.186,99.130 30.789,98.800 30.648 C 98.470 30.507,98.605 30.466,99.100 30.558 C 100.219 30.766,100.225 30.598,99.141 29.483 C 98.368 28.688,98.310 28.678,98.558 29.378 C 98.813 30.095,98.779 30.107,98.117 29.530 C 97.723 29.186,97.130 28.789,96.800 28.648 C 96.470 28.507,96.605 28.466,97.100 28.558 C 98.219 28.766,98.225 28.598,97.141 27.483 C 96.368 26.688,96.310 26.678,96.558 27.378 C 96.813 28.095,96.779 28.107,96.117 27.530 C 95.723 27.186,95.130 26.789,94.800 26.648 C 94.470 26.507,94.605 26.466,95.100 26.558 C 96.219 26.766,96.225 26.598,95.141 25.483 C 94.368 24.688,94.310 24.678,94.558 25.378 C 94.828 26.136,94.814 26.137,94.017 25.416 C 93.156 24.636,92.924 24.182,93.600 24.600 C 93.820 24.736,94.000 24.638,94.000 24.382 C 94.000 24.082,93.447 23.969,92.449 24.064 C 91.319 24.172,90.950 24.074,91.091 23.706 C 91.198 23.428,91.086 23.200,90.843 23.200 C 90.599 23.200,90.400 23.470,90.400 23.800 C 90.400 24.130,90.085 24.403,89.700 24.406 C 89.103 24.411,89.089 24.468,89.600 24.792 C 90.123 25.122,90.108 25.263,89.478 25.886 C 88.803 26.554,88.774 26.555,89.021 25.900 C 89.174 25.496,89.099 25.200,88.843 25.200 C 88.599 25.200,88.400 25.470,88.400 25.800 C 88.400 26.130,88.085 26.403,87.700 26.406 C 87.103 26.411,87.089 26.468,87.600 26.792 C 88.123 27.122,88.108 27.263,87.478 27.886 C 86.803 28.554,86.774 28.555,87.021 27.900 C 87.174 27.496,87.099 27.200,86.843 27.200 C 86.599 27.200,86.400 27.470,86.400 27.800 C 86.400 28.130,86.085 28.403,85.700 28.406 C 85.103 28.411,85.089 28.468,85.600 28.792 C 86.123 29.122,86.108 29.263,85.478 29.886 C 84.803 30.554,84.774 30.555,85.021 29.900 C 85.174 29.496,85.099 29.200,84.843 29.200 C 84.599 29.200,84.400 29.470,84.400 29.800 C 84.400 30.130,84.085 30.403,83.700 30.406 C 83.103 30.411,83.089 30.468,83.600 30.792 C 84.123 31.122,84.108 31.263,83.478 31.886 C 82.803 32.554,82.774 32.555,83.021 31.900 C 83.174 31.496,83.099 31.200,82.843 31.200 C 82.599 31.200,82.400 31.470,82.400 31.800 C 82.400 32.130,82.085 32.403,81.700 32.406 C 81.103 32.411,81.089 32.468,81.600 32.792 C 82.123 33.122,82.108 33.263,81.478 33.886 C 80.803 34.554,80.774 34.555,81.021 33.900 C 81.174 33.496,81.099 33.200,80.843 33.200 C 80.599 33.200,80.400 33.470,80.400 33.800 C 80.400 34.130,80.085 34.403,79.700 34.406 C 79.103 34.411,79.089 34.468,79.600 34.792 C 80.123 35.122,80.108 35.263,79.478 35.886 C 78.803 36.554,78.774 36.555,79.021 35.900 C 79.174 35.496,79.099 35.200,78.843 35.200 C 78.599 35.200,78.400 35.470,78.400 35.800 C 78.400 36.130,78.085 36.403,77.700 36.406 C 77.103 36.411,77.089 36.468,77.600 36.792 C 78.123 37.122,78.108 37.263,77.478 37.886 C 76.803 38.554,76.774 38.555,77.021 37.900 C 77.174 37.496,77.099 37.200,76.843 37.200 C 76.599 37.200,76.400 37.470,76.400 37.800 C 76.400 38.130,76.085 38.403,75.700 38.406 C 75.103 38.411,75.089 38.468,75.600 38.792 C 76.123 39.122,76.108 39.263,75.478 39.886 C 74.803 40.554,74.774 40.555,75.021 39.900 C 75.174 39.496,75.099 39.200,74.843 39.200 C 74.599 39.200,74.400 39.470,74.400 39.800 C 74.400 40.130,74.085 40.403,73.700 40.406 C 73.103 40.411,73.089 40.468,73.600 40.792 C 74.123 41.122,74.108 41.263,73.478 41.886 C 72.803 42.554,72.774 42.555,73.021 41.900 C 73.174 41.496,73.099 41.200,72.843 41.200 C 72.599 41.200,72.400 41.470,72.400 41.800 C 72.400 42.130,72.085 42.403,71.700 42.406 C 71.103 42.411,71.089 42.468,71.600 42.792 C 72.123 43.122,72.108 43.263,71.478 43.886 C 70.803 44.554,70.774 44.555,71.021 43.900 C 71.174 43.496,71.099 43.200,70.843 43.200 C 70.599 43.200,70.400 43.470,70.400 43.800 C 70.400 44.130,70.085 44.403,69.700 44.406 C 69.103 44.411,69.089 44.468,69.600 44.792 C 70.123 45.122,70.108 45.263,69.478 45.886 C 68.803 46.554,68.774 46.555,69.021 45.900 C 69.174 45.496,69.099 45.200,68.843 45.200 C 68.599 45.200,68.400 45.470,68.400 45.800 C 68.400 46.130,68.085 46.403,67.700 46.406 C 67.103 46.411,67.089 46.468,67.600 46.792 C 68.123 47.122,68.108 47.263,67.478 47.886 C 66.803 48.554,66.774 48.555,67.021 47.900 C 67.174 47.496,67.099 47.200,66.843 47.200 C 66.599 47.200,66.400 47.470,66.400 47.800 C 66.400 48.130,66.085 48.403,65.700 48.406 C 65.103 48.411,65.089 48.468,65.600 48.792 C 66.123 49.122,66.108 49.263,65.478 49.886 C 64.803 50.554,64.774 50.555,65.021 49.900 C 65.174 49.496,65.099 49.200,64.843 49.200 C 64.599 49.200,64.400 49.470,64.400 49.800 C 64.400 50.130,64.085 50.403,63.700 50.406 C 63.103 50.411,63.089 50.468,63.600 50.792 C 64.123 51.122,64.108 51.263,63.478 51.886 C 62.803 52.554,62.774 52.555,63.021 51.900 C 63.174 51.496,63.099 51.200,62.843 51.200 C 62.599 51.200,62.400 51.470,62.400 51.800 C 62.400 52.130,62.085 52.403,61.700 52.406 C 61.103 52.411,61.089 52.468,61.600 52.792 C 62.123 53.122,62.108 53.263,61.478 53.886 C 60.803 54.554,60.774 54.555,61.021 53.900 C 61.174 53.496,61.099 53.200,60.843 53.200 C 60.599 53.200,60.400 53.470,60.400 53.800 C 60.400 54.130,60.085 54.403,59.700 54.406 C 59.103 54.411,59.089 54.468,59.600 54.792 C 60.123 55.122,60.108 55.263,59.478 55.886 C 58.803 56.554,58.774 56.555,59.021 55.900 C 59.174 55.496,59.099 55.200,58.843 55.200 C 58.599 55.200,58.400 55.470,58.400 55.800 C 58.400 56.130,58.085 56.403,57.700 56.406 C 57.103 56.411,57.089 56.468,57.600 56.792 C 58.123 57.122,58.108 57.263,57.478 57.886 C 56.803 58.554,56.774 58.555,57.021 57.900 C 57.174 57.496,57.099 57.200,56.843 57.200 C 56.599 57.200,56.400 57.470,56.400 57.800 C 56.400 58.130,56.085 58.403,55.700 58.406 C 55.103 58.411,55.089 58.468,55.600 58.792 C 56.123 59.122,56.108 59.263,55.478 59.886 C 54.803 60.554,54.774 60.555,55.021 59.900 C 55.174 59.496,55.099 59.200,54.843 59.200 C 54.599 59.200,54.400 59.470,54.400 59.800 C 54.400 60.130,54.085 60.403,53.700 60.406 C 53.103 60.411,53.089 60.468,53.600 60.792 C 54.123 61.122,54.108 61.263,53.478 61.886 C 52.803 62.554,52.774 62.555,53.021 61.900 C 53.174 61.496,53.099 61.200,52.843 61.200 C 52.599 61.200,52.400 61.470,52.400 61.800 C 52.400 62.130,52.085 62.403,51.700 62.406 C 51.106 62.411,51.090 62.469,51.597 62.789 C 52.082 63.096,52.098 63.262,51.680 63.680 C 51.262 64.098,51.096 64.082,50.789 63.597 C 50.469 63.090,50.411 63.106,50.406 63.700 C 50.403 64.095,50.095 64.403,49.700 64.406 C 49.103 64.411,49.089 64.468,49.600 64.792 C 50.123 65.122,50.108 65.263,49.478 65.886 C 48.803 66.554,48.774 66.555,49.021 65.900 C 49.174 65.496,49.099 65.200,48.843 65.200 C 48.599 65.200,48.400 65.470,48.400 65.800 C 48.400 66.130,48.085 66.403,47.700 66.406 C 47.103 66.411,47.089 66.468,47.600 66.792 C 48.123 67.122,48.108 67.263,47.478 67.886 C 46.803 68.554,46.774 68.555,47.021 67.900 C 47.174 67.496,47.099 67.200,46.843 67.200 C 46.599 67.200,46.400 67.470,46.400 67.800 C 46.400 68.130,46.085 68.403,45.700 68.406 C 45.103 68.411,45.089 68.468,45.600 68.792 C 46.123 69.122,46.108 69.263,45.478 69.886 C 44.803 70.554,44.774 70.555,45.021 69.900 C 45.174 69.496,45.099 69.200,44.843 69.200 C 44.599 69.200,44.400 69.470,44.400 69.800 C 44.400 70.130,44.085 70.403,43.700 70.406 C 43.103 70.411,43.089 70.468,43.600 70.792 C 44.123 71.122,44.108 71.263,43.478 71.886 C 42.803 72.554,42.774 72.555,43.021 71.900 C 43.174 71.496,43.099 71.200,42.843 71.200 C 42.599 71.200,42.400 71.470,42.400 71.800 C 42.400 72.130,42.085 72.403,41.700 72.406 C 41.103 72.411,41.089 72.468,41.600 72.792 C 42.123 73.122,42.108 73.263,41.478 73.886 C 40.803 74.554,40.774 74.555,41.021 73.900 C 41.174 73.496,41.099 73.200,40.843 73.200 C 40.599 73.200,40.400 73.470,40.400 73.800 C 40.400 74.130,40.085 74.403,39.700 74.406 C 39.103 74.411,39.089 74.468,39.600 74.792 C 40.123 75.122,40.108 75.263,39.478 75.886 C 38.803 76.554,38.774 76.555,39.021 75.900 C 39.174 75.496,39.099 75.200,38.843 75.200 C 38.599 75.200,38.400 75.470,38.400 75.800 C 38.400 76.130,38.085 76.403,37.700 76.406 C 37.103 76.411,37.089 76.468,37.600 76.792 C 38.123 77.122,38.108 77.263,37.478 77.886 C 36.803 78.554,36.774 78.555,37.021 77.900 C 37.174 77.496,37.099 77.200,36.843 77.200 C 36.599 77.200,36.400 77.470,36.400 77.800 C 36.400 78.130,36.085 78.403,35.700 78.406 C 35.103 78.411,35.089 78.468,35.600 78.792 C 36.123 79.122,36.108 79.263,35.478 79.886 C 34.803 80.554,34.774 80.555,35.021 79.900 C 35.174 79.496,35.099 79.200,34.843 79.200 C 34.599 79.200,34.400 79.470,34.400 79.800 C 34.400 80.130,34.085 80.403,33.700 80.406 C 33.103 80.411,33.089 80.468,33.600 80.792 C 34.123 81.122,34.108 81.263,33.478 81.886 C 32.803 82.554,32.774 82.555,33.021 81.900 C 33.174 81.496,33.099 81.200,32.843 81.200 C 32.599 81.200,32.400 81.470,32.400 81.800 C 32.400 82.130,32.085 82.403,31.700 82.406 C 31.103 82.411,31.089 82.468,31.600 82.792 C 32.123 83.122,32.108 83.263,31.478 83.886 C 30.803 84.554,30.774 84.555,31.021 83.900 C 31.174 83.496,31.099 83.200,30.843 83.200 C 30.599 83.200,30.400 83.470,30.400 83.800 C 30.400 84.130,30.085 84.403,29.700 84.406 C 29.103 84.411,29.089 84.468,29.600 84.792 C 30.123 85.122,30.108 85.263,29.478 85.886 C 28.803 86.554,28.774 86.555,29.021 85.900 C 29.174 85.496,29.099 85.200,28.843 85.200 C 28.599 85.200,28.400 85.470,28.400 85.800 C 28.400 86.130,28.085 86.403,27.700 86.406 C 27.103 86.411,27.089 86.468,27.600 86.792 C 28.123 87.122,28.108 87.263,27.478 87.886 C 26.803 88.554,26.774 88.555,27.021 87.900 C 27.174 87.496,27.099 87.200,26.843 87.200 C 26.599 87.200,26.400 87.470,26.400 87.800 C 26.400 88.130,26.085 88.403,25.700 88.406 C 25.103 88.411,25.089 88.468,25.600 88.792 C 26.123 89.122,26.108 89.263,25.478 89.886 C 24.803 90.554,24.774 90.555,25.021 89.900 C 25.174 89.496,25.099 89.200,24.843 89.200 C 24.599 89.200,24.400 89.470,24.400 89.800 C 24.400 90.130,24.085 90.414,23.700 90.432 C 23.282 90.450,23.201 90.544,23.500 90.665 C 23.778 90.777,24.000 91.549,24.000 92.406 C 24.000 93.697,24.145 93.965,24.900 94.072 C 25.470 94.153,25.846 94.521,25.925 95.075 C 26.002 95.621,26.379 95.998,26.925 96.075 C 27.470 96.153,27.847 96.530,27.925 97.075 C 28.002 97.621,28.379 97.998,28.925 98.075 C 29.470 98.153,29.847 98.530,29.925 99.075 C 30.002 99.621,30.379 99.998,30.925 100.075 C 31.470 100.153,31.847 100.530,31.925 101.075 C 32.002 101.621,32.379 101.998,32.925 102.075 C 33.470 102.153,33.847 102.530,33.925 103.075 C 34.002 103.621,34.379 103.998,34.925 104.075 C 35.470 104.153,35.847 104.530,35.925 105.075 C 36.002 105.621,36.379 105.998,36.925 106.075 C 37.470 106.153,37.847 106.530,37.925 107.075 C 38.002 107.621,38.379 107.998,38.925 108.075 C 39.470 108.153,39.847 108.530,39.925 109.075 C 40.002 109.621,40.379 109.998,40.925 110.075 C 41.470 110.153,41.847 110.530,41.925 111.075 C 42.002 111.621,42.379 111.998,42.925 112.075 C 43.470 112.153,43.847 112.530,43.925 113.075 C 44.002 113.621,44.379 113.998,44.925 114.075 C 45.470 114.153,45.847 114.530,45.925 115.075 C 46.002 115.621,46.379 115.998,46.925 116.075 C 47.470 116.153,47.847 116.530,47.925 117.075 C 48.002 117.621,48.379 117.998,48.925 118.075 C 49.479 118.154,49.847 118.530,49.928 119.100 C 49.998 119.595,50.234 120.000,50.451 120.000 C 50.669 120.000,50.716 119.775,50.555 119.500 C 50.394 119.225,50.653 119.343,51.131 119.762 C 51.609 120.181,52.000 120.844,52.000 121.234 C 52.000 121.666,52.353 121.994,52.900 122.072 C 53.470 122.153,53.846 122.521,53.925 123.075 C 54.002 123.621,54.379 123.998,54.925 124.075 C 55.470 124.153,55.847 124.530,55.925 125.075 C 56.002 125.621,56.379 125.998,56.925 126.075 C 57.470 126.153,57.847 126.530,57.925 127.075 C 58.002 127.621,58.379 127.998,58.925 128.075 C 59.470 128.153,59.847 128.530,59.925 129.075 C 60.002 129.621,60.379 129.998,60.925 130.075 C 61.470 130.153,61.847 130.530,61.925 131.075 C 62.002 131.621,62.379 131.998,62.925 132.075 C 63.470 132.153,63.847 132.530,63.925 133.075 C 64.002 133.621,64.379 133.998,64.925 134.075 C 65.470 134.153,65.847 134.530,65.925 135.075 C 66.002 135.621,66.379 135.998,66.925 136.075 C 67.470 136.153,67.847 136.530,67.925 137.075 C 68.002 137.621,68.379 137.998,68.925 138.075 C 69.470 138.153,69.847 138.530,69.925 139.075 C 70.002 139.621,70.379 139.998,70.925 140.075 C 71.470 140.153,71.847 140.530,71.925 141.075 C 72.002 141.621,72.379 141.998,72.925 142.075 C 73.470 142.153,73.847 142.530,73.925 143.075 C 74.002 143.621,74.379 143.998,74.925 144.075 C 75.470 144.153,75.847 144.530,75.925 145.075 C 76.002 145.621,76.379 145.998,76.925 146.075 C 77.470 146.153,77.847 146.530,77.925 147.075 C 78.002 147.621,78.379 147.998,78.925 148.075 C 79.479 148.154,79.847 148.530,79.928 149.100 C 80.008 149.667,80.332 150.000,80.804 150.000 C 81.679 150.000,82.363 150.879,81.668 151.111 C 81.408 151.197,81.297 151.433,81.421 151.634 C 81.557 151.854,65.396 152.000,40.824 152.000 L 0.000 152.000 0.000 200.200 L 0.000 248.400 40.700 248.447 C 63.085 248.473,81.535 248.473,81.700 248.447 C 82.239 248.362,82.015 249.489,81.391 250.008 C 80.882 250.430,80.823 250.406,81.034 249.857 C 81.174 249.491,81.089 249.200,80.843 249.200 C 80.599 249.200,80.400 249.470,80.400 249.800 C 80.400 250.130,80.085 250.403,79.700 250.406 C 79.103 250.411,79.089 250.468,79.600 250.792 C 80.123 251.122,80.108 251.263,79.478 251.886 C 78.803 252.554,78.774 252.555,79.021 251.900 C 79.174 251.496,79.099 251.200,78.843 251.200 C 78.599 251.200,78.400 251.470,78.400 251.800 C 78.400 252.130,78.085 252.403,77.700 252.406 C 77.103 252.411,77.089 252.468,77.600 252.792 C 78.123 253.122,78.108 253.263,77.478 253.886 C 76.803 254.554,76.774 254.555,77.021 253.900 C 77.174 253.496,77.099 253.200,76.843 253.200 C 76.599 253.200,76.400 253.470,76.400 253.800 C 76.400 254.130,76.085 254.403,75.700 254.406 C 75.103 254.411,75.089 254.468,75.600 254.792 C 76.123 255.122,76.108 255.263,75.478 255.886 C 74.803 256.554,74.774 256.555,75.021 255.900 C 75.174 255.496,75.099 255.200,74.843 255.200 C 74.599 255.200,74.400 255.470,74.400 255.800 C 74.400 256.130,74.085 256.403,73.700 256.406 C 73.103 256.411,73.089 256.468,73.600 256.792 C 74.123 257.122,74.108 257.263,73.478 257.886 C 72.803 258.554,72.774 258.555,73.021 257.900 C 73.174 257.496,73.099 257.200,72.843 257.200 C 72.599 257.200,72.400 257.470,72.400 257.800 C 72.400 258.130,72.085 258.403,71.700 258.406 C 71.103 258.411,71.089 258.468,71.600 258.792 C 72.123 259.122,72.108 259.263,71.478 259.886 C 70.803 260.554,70.774 260.555,71.021 259.900 C 71.174 259.496,71.099 259.200,70.843 259.200 C 70.599 259.200,70.400 259.470,70.400 259.800 C 70.400 260.130,70.085 260.403,69.700 260.406 C 69.103 260.411,69.089 260.468,69.600 260.792 C 70.123 261.122,70.108 261.263,69.478 261.886 C 68.803 262.554,68.774 262.555,69.021 261.900 C 69.174 261.496,69.099 261.200,68.843 261.200 C 68.599 261.200,68.400 261.470,68.400 261.800 C 68.400 262.130,68.085 262.403,67.700 262.406 C 67.103 262.411,67.089 262.468,67.600 262.792 C 68.123 263.122,68.108 263.263,67.478 263.886 C 66.803 264.554,66.774 264.555,67.021 263.900 C 67.174 263.496,67.099 263.200,66.843 263.200 C 66.599 263.200,66.400 263.470,66.400 263.800 C 66.400 264.130,66.085 264.403,65.700 264.406 C 65.103 264.411,65.089 264.468,65.600 264.792 C 66.123 265.122,66.108 265.263,65.478 265.886 C 64.803 266.554,64.774 266.555,65.021 265.900 C 65.174 265.496,65.099 265.200,64.843 265.200 C 64.599 265.200,64.400 265.470,64.400 265.800 C 64.400 266.130,64.085 266.403,63.700 266.406 C 63.103 266.411,63.089 266.468,63.600 266.792 C 64.123 267.122,64.108 267.263,63.478 267.886 C 62.803 268.554,62.774 268.555,63.021 267.900 C 63.174 267.496,63.099 267.200,62.843 267.200 C 62.599 267.200,62.400 267.470,62.400 267.800 C 62.400 268.130,62.085 268.403,61.700 268.406 C 61.103 268.411,61.089 268.468,61.600 268.792 C 62.123 269.122,62.108 269.263,61.478 269.886 C 60.803 270.554,60.774 270.555,61.021 269.900 C 61.174 269.496,61.099 269.200,60.843 269.200 C 60.599 269.200,60.400 269.470,60.400 269.800 C 60.400 270.130,60.085 270.403,59.700 270.406 C 59.103 270.411,59.089 270.468,59.600 270.792 C 60.123 271.122,60.108 271.263,59.478 271.886 C 58.803 272.554,58.774 272.555,59.021 271.900 C 59.174 271.496,59.099 271.200,58.843 271.200 C 58.599 271.200,58.400 271.470,58.400 271.800 C 58.400 272.130,58.085 272.403,57.700 272.406 C 57.103 272.411,57.089 272.468,57.600 272.792 C 58.123 273.122,58.108 273.263,57.478 273.886 C 56.803 274.554,56.774 274.555,57.021 273.900 C 57.174 273.496,57.099 273.200,56.843 273.200 C 56.599 273.200,56.400 273.470,56.400 273.800 C 56.400 274.130,56.085 274.403,55.700 274.406 C 55.103 274.411,55.089 274.468,55.600 274.792 C 56.123 275.122,56.108 275.263,55.478 275.886 C 54.803 276.554,54.774 276.555,55.021 275.900 C 55.174 275.496,55.099 275.200,54.843 275.200 C 54.599 275.200,54.400 275.470,54.400 275.800 C 54.400 276.130,54.085 276.403,53.700 276.406 C 53.103 276.411,53.089 276.468,53.600 276.792 C 54.123 277.122,54.108 277.263,53.478 277.886 C 52.803 278.554,52.774 278.555,53.021 277.900 C 53.174 277.496,53.099 277.200,52.843 277.200 C 52.599 277.200,52.400 277.470,52.400 277.800 C 52.400 278.130,52.085 278.403,51.700 278.406 C 51.106 278.411,51.090 278.469,51.597 278.789 C 52.082 279.096,52.098 279.262,51.680 279.680 C 51.262 280.098,51.096 280.082,50.789 279.597 C 50.469 279.090,50.411 279.106,50.406 279.700 C 50.403 280.095,50.095 280.403,49.700 280.406 C 49.103 280.411,49.089 280.468,49.600 280.792 C 50.123 281.122,50.108 281.263,49.478 281.886 C 48.803 282.554,48.774 282.555,49.021 281.900 C 49.174 281.496,49.099 281.200,48.843 281.200 C 48.599 281.200,48.400 281.470,48.400 281.800 C 48.400 282.130,48.085 282.403,47.700 282.406 C 47.103 282.411,47.089 282.468,47.600 282.792 C 48.123 283.122,48.108 283.263,47.478 283.886 C 46.803 284.554,46.774 284.555,47.021 283.900 C 47.174 283.496,47.099 283.200,46.843 283.200 C 46.599 283.200,46.400 283.470,46.400 283.800 C 46.400 284.130,46.085 284.403,45.700 284.406 C 45.103 284.411,45.089 284.468,45.600 284.792 C 46.123 285.122,46.108 285.263,45.478 285.886 C 44.803 286.554,44.774 286.555,45.021 285.900 C 45.174 285.496,45.099 285.200,44.843 285.200 C 44.599 285.200,44.400 285.470,44.400 285.800 C 44.400 286.130,44.085 286.403,43.700 286.406 C 43.103 286.411,43.089 286.468,43.600 286.792 C 44.123 287.122,44.108 287.263,43.478 287.886 C 42.803 288.554,42.774 288.555,43.021 287.900 C 43.174 287.496,43.099 287.200,42.843 287.200 C 42.599 287.200,42.400 287.470,42.400 287.800 C 42.400 288.130,42.085 288.403,41.700 288.406 C 41.103 288.411,41.089 288.468,41.600 288.792 C 42.123 289.122,42.108 289.263,41.478 289.886 C 40.803 290.554,40.774 290.555,41.021 289.900 C 41.174 289.496,41.099 289.200,40.843 289.200 C 40.599 289.200,40.400 289.470,40.400 289.800 C 40.400 290.130,40.085 290.403,39.700 290.406 C 39.103 290.411,39.089 290.468,39.600 290.792 C 40.123 291.122,40.108 291.263,39.478 291.886 C 38.803 292.554,38.774 292.555,39.021 291.900 C 39.174 291.496,39.099 291.200,38.843 291.200 C 38.599 291.200,38.400 291.470,38.400 291.800 C 38.400 292.130,38.085 292.403,37.700 292.406 C 37.103 292.411,37.089 292.468,37.600 292.792 C 38.123 293.122,38.108 293.263,37.478 293.886 C 36.803 294.554,36.774 294.555,37.021 293.900 C 37.174 293.496,37.099 293.200,36.843 293.200 C 36.599 293.200,36.400 293.470,36.400 293.800 C 36.400 294.130,36.085 294.403,35.700 294.406 C 35.103 294.411,35.089 294.468,35.600 294.792 C 36.123 295.122,36.108 295.263,35.478 295.886 C 34.803 296.554,34.774 296.555,35.021 295.900 C 35.174 295.496,35.099 295.200,34.843 295.200 C 34.599 295.200,34.400 295.470,34.400 295.800 C 34.400 296.130,34.085 296.403,33.700 296.406 C 33.103 296.411,33.089 296.468,33.600 296.792 C 34.123 297.122,34.108 297.263,33.478 297.886 C 32.803 298.554,32.774 298.555,33.021 297.900 C 33.174 297.496,33.099 297.200,32.843 297.200 C 32.599 297.200,32.400 297.470,32.400 297.800 C 32.400 298.130,32.085 298.403,31.700 298.406 C 31.103 298.411,31.089 298.468,31.600 298.792 C 32.123 299.122,32.108 299.263,31.478 299.886 C 30.803 300.554,30.774 300.555,31.021 299.900 C 31.174 299.496,31.099 299.200,30.843 299.200 C 30.599 299.200,30.400 299.470,30.400 299.800 C 30.400 300.130,30.085 300.403,29.700 300.406 C 29.103 300.411,29.089 300.468,29.600 300.792 C 30.123 301.122,30.108 301.263,29.478 301.886 C 28.803 302.554,28.774 302.555,29.021 301.900 C 29.174 301.496,29.099 301.200,28.843 301.200 C 28.599 301.200,28.400 301.470,28.400 301.800 C 28.400 302.130,28.085 302.403,27.700 302.406 C 27.103 302.411,27.089 302.468,27.600 302.792 C 28.123 303.122,28.108 303.263,27.478 303.886 C 26.803 304.554,26.774 304.555,27.021 303.900 C 27.174 303.496,27.099 303.200,26.843 303.200 C 26.599 303.200,26.400 303.470,26.400 303.800 C 26.400 304.130,26.085 304.403,25.700 304.406 C 25.103 304.411,25.089 304.468,25.600 304.792 C 26.123 305.122,26.108 305.263,25.478 305.886 C 24.803 306.554,24.774 306.555,25.021 305.900 C 25.174 305.496,25.099 305.200,24.843 305.200 C 24.599 305.200,24.400 305.470,24.400 305.800 C 24.400 306.130,24.085 306.414,23.700 306.432 C 23.282 306.450,23.201 306.544,23.500 306.665 C 23.778 306.777,24.000 307.549,24.000 308.406 C 24.000 309.697,24.145 309.965,24.900 310.072 C 25.470 310.153,25.846 310.521,25.925 311.075 C 26.002 311.621,26.379 311.998,26.925 312.075 C 27.470 312.153,27.847 312.530,27.925 313.075 C 28.002 313.621,28.379 313.998,28.925 314.075 C 29.470 314.153,29.847 314.530,29.925 315.075 C 30.002 315.621,30.379 315.998,30.925 316.075 C 31.470 316.153,31.847 316.530,31.925 317.075 C 32.002 317.621,32.379 317.998,32.925 318.075 C 33.470 318.153,33.847 318.530,33.925 319.075 C 34.002 319.621,34.379 319.998,34.925 320.075 C 35.470 320.153,35.847 320.530,35.925 321.075 C 36.002 321.621,36.379 321.998,36.925 322.075 C 37.470 322.153,37.847 322.530,37.925 323.075 C 38.002 323.621,38.379 323.998,38.925 324.075 C 39.470 324.153,39.847 324.530,39.925 325.075 C 40.002 325.621,40.379 325.998,40.925 326.075 C 41.470 326.153,41.847 326.530,41.925 327.075 C 42.002 327.621,42.379 327.998,42.925 328.075 C 43.470 328.153,43.847 328.530,43.925 329.075 C 44.002 329.621,44.379 329.998,44.925 330.075 C 45.470 330.153,45.847 330.530,45.925 331.075 C 46.002 331.621,46.379 331.998,46.925 332.075 C 47.470 332.153,47.847 332.530,47.925 333.075 C 48.002 333.621,48.379 333.998,48.925 334.075 C 49.479 334.154,49.847 334.530,49.928 335.100 C 49.998 335.595,50.234 336.000,50.451 336.000 C 50.669 336.000,50.716 335.775,50.555 335.500 C 50.394 335.225,50.653 335.343,51.131 335.762 C 51.609 336.181,52.000 336.844,52.000 337.234 C 52.000 337.666,52.353 337.994,52.900 338.072 C 53.470 338.153,53.846 338.521,53.925 339.075 C 54.002 339.621,54.379 339.998,54.925 340.075 C 55.470 340.153,55.847 340.530,55.925 341.075 C 56.002 341.621,56.379 341.998,56.925 342.075 C 57.470 342.153,57.847 342.530,57.925 343.075 C 58.002 343.621,58.379 343.998,58.925 344.075 C 59.470 344.153,59.847 344.530,59.925 345.075 C 60.002 345.621,60.379 345.998,60.925 346.075 C 61.470 346.153,61.847 346.530,61.925 347.075 C 62.002 347.621,62.379 347.998,62.925 348.075 C 63.470 348.153,63.847 348.530,63.925 349.075 C 64.002 349.621,64.379 349.998,64.925 350.075 C 65.470 350.153,65.847 350.530,65.925 351.075 C 66.002 351.621,66.379 351.998,66.925 352.075 C 67.470 352.153,67.847 352.530,67.925 353.075 C 68.002 353.621,68.379 353.998,68.925 354.075 C 69.470 354.153,69.847 354.530,69.925 355.075 C 70.002 355.621,70.379 355.998,70.925 356.075 C 71.470 356.153,71.847 356.530,71.925 357.075 C 72.002 357.621,72.379 357.998,72.925 358.075 C 73.470 358.153,73.847 358.530,73.925 359.075 C 74.002 359.621,74.379 359.998,74.925 360.075 C 75.470 360.153,75.847 360.530,75.925 361.075 C 76.002 361.621,76.379 361.998,76.925 362.075 C 77.470 362.153,77.847 362.530,77.925 363.075 C 78.002 363.621,78.379 363.998,78.925 364.075 C 79.470 364.153,79.847 364.530,79.925 365.075 C 80.002 365.621,80.379 365.998,80.925 366.075 C 81.470 366.153,81.847 366.530,81.925 367.075 C 82.002 367.621,82.379 367.998,82.925 368.075 C 83.470 368.153,83.847 368.530,83.925 369.075 C 84.002 369.621,84.379 369.998,84.925 370.075 C 85.470 370.153,85.847 370.530,85.925 371.075 C 86.002 371.621,86.379 371.998,86.925 372.075 C 87.470 372.153,87.847 372.530,87.925 373.075 C 88.002 373.621,88.379 373.998,88.925 374.075 C 89.452 374.151,89.847 374.529,89.918 375.029 C 90.021 375.744,90.308 375.854,92.008 375.829 C 93.804 375.803,93.965 375.723,93.822 374.934 C 93.601 373.712,94.003 373.483,94.936 374.299 C 95.377 374.685,95.606 374.775,95.445 374.500 C 95.284 374.225,95.347 374.000,95.584 374.000 C 95.822 374.000,95.937 373.567,95.840 373.034 C 95.602 371.716,95.980 371.462,96.936 372.299 C 97.377 372.685,97.606 372.775,97.445 372.500 C 97.284 372.225,97.347 372.000,97.584 372.000 C 97.822 372.000,97.937 371.567,97.840 371.034 C 97.602 369.716,97.980 369.462,98.936 370.299 C 99.377 370.685,99.606 370.775,99.445 370.500 C 99.284 370.225,99.347 370.000,99.584 370.000 C 99.822 370.000,99.937 369.567,99.840 369.034 C 99.602 367.716,99.980 367.462,100.936 368.299 C 101.377 368.685,101.606 368.775,101.445 368.500 C 101.284 368.225,101.347 368.000,101.584 368.000 C 101.822 368.000,101.937 367.567,101.840 367.034 C 101.602 365.716,101.980 365.462,102.936 366.299 C 103.377 366.685,103.606 366.775,103.445 366.500 C 103.284 366.225,103.347 366.000,103.584 366.000 C 103.822 366.000,103.937 365.567,103.840 365.034 C 103.602 363.716,103.980 363.462,104.936 364.299 C 105.377 364.685,105.606 364.775,105.445 364.500 C 105.284 364.225,105.347 364.000,105.584 364.000 C 105.822 364.000,105.937 363.567,105.840 363.034 C 105.602 361.716,105.980 361.462,106.936 362.299 C 107.377 362.685,107.606 362.775,107.445 362.500 C 107.284 362.225,107.347 362.000,107.584 362.000 C 107.822 362.000,107.937 361.567,107.840 361.034 C 107.602 359.716,107.980 359.462,108.936 360.299 C 109.377 360.685,109.606 360.775,109.445 360.500 C 109.284 360.225,109.347 360.000,109.584 360.000 C 109.822 360.000,109.937 359.567,109.840 359.034 C 109.602 357.716,109.980 357.462,110.936 358.299 C 111.377 358.685,111.606 358.775,111.445 358.500 C 111.284 358.225,111.347 358.000,111.584 358.000 C 111.822 358.000,111.937 357.567,111.840 357.034 C 111.602 355.716,111.980 355.462,112.936 356.299 C 113.377 356.685,113.606 356.775,113.445 356.500 C 113.284 356.225,113.347 356.000,113.584 356.000 C 113.822 356.000,113.937 355.567,113.840 355.034 C 113.602 353.716,113.980 353.462,114.936 354.299 C 115.377 354.685,115.606 354.775,115.445 354.500 C 115.284 354.225,115.347 354.000,115.584 354.000 C 115.822 354.000,115.937 353.567,115.840 353.034 C 115.602 351.716,115.980 351.462,116.936 352.299 C 117.377 352.685,117.606 352.775,117.445 352.500 C 117.284 352.225,117.347 352.000,117.584 352.000 C 117.822 352.000,117.937 351.567,117.840 351.034 C 117.602 349.716,117.980 349.462,118.936 350.299 C 119.377 350.685,119.606 350.775,119.445 350.500 C 119.284 350.225,119.347 350.000,119.584 350.000 C 119.822 350.000,119.937 349.567,119.840 349.034 C 119.602 347.716,119.980 347.462,120.936 348.299 C 121.377 348.685,121.606 348.775,121.445 348.500 C 121.284 348.225,121.347 348.000,121.584 348.000 C 121.822 348.000,121.937 347.567,121.840 347.034 C 121.602 345.716,121.980 345.462,122.936 346.299 C 123.377 346.685,123.606 346.775,123.445 346.500 C 123.284 346.225,123.347 346.000,123.584 346.000 C 123.822 346.000,123.937 345.567,123.840 345.034 C 123.602 343.716,123.980 343.462,124.936 344.299 C 125.377 344.685,125.606 344.775,125.445 344.500 C 125.284 344.225,125.347 344.000,125.584 344.000 C 125.822 344.000,125.937 343.567,125.840 343.034 C 125.602 341.716,125.980 341.462,126.936 342.299 C 127.377 342.685,127.606 342.775,127.445 342.500 C 127.284 342.225,127.347 342.000,127.584 342.000 C 127.822 342.000,127.937 341.567,127.840 341.034 C 127.602 339.716,127.980 339.462,128.936 340.299 C 129.377 340.685,129.606 340.775,129.445 340.500 C 129.284 340.225,129.347 340.000,129.584 340.000 C 129.822 340.000,129.937 339.567,129.840 339.034 C 129.602 337.716,129.980 337.462,130.936 338.299 C 131.377 338.685,131.606 338.775,131.445 338.500 C 131.284 338.225,131.347 338.000,131.584 338.000 C 131.822 338.000,131.937 337.567,131.840 337.034 C 131.602 335.716,131.980 335.462,132.936 336.299 C 133.377 336.685,133.606 336.775,133.445 336.500 C 133.284 336.225,133.347 336.000,133.584 336.000 C 133.822 336.000,133.937 335.567,133.840 335.034 C 133.602 333.716,133.980 333.462,134.936 334.299 C 135.377 334.685,135.606 334.775,135.445 334.500 C 135.284 334.225,135.347 334.000,135.584 334.000 C 135.822 334.000,135.937 333.567,135.840 333.034 C 135.602 331.716,135.980 331.462,136.936 332.299 C 137.377 332.685,137.606 332.775,137.445 332.500 C 137.284 332.225,137.347 332.000,137.584 332.000 C 137.822 332.000,137.937 331.567,137.840 331.034 C 137.602 329.716,137.980 329.462,138.936 330.299 C 139.377 330.685,139.606 330.775,139.445 330.500 C 139.284 330.225,139.347 330.000,139.584 330.000 C 139.822 330.000,139.937 329.567,139.840 329.034 C 139.602 327.716,139.980 327.462,140.936 328.299 C 141.377 328.685,141.606 328.775,141.445 328.500 C 141.284 328.225,141.347 328.000,141.584 328.000 C 141.822 328.000,141.937 327.567,141.840 327.034 C 141.602 325.716,141.980 325.462,142.936 326.299 C 143.377 326.685,143.606 326.775,143.445 326.500 C 143.284 326.225,143.347 326.000,143.584 326.000 C 143.822 326.000,143.937 325.567,143.840 325.034 C 143.602 323.716,143.980 323.462,144.936 324.299 C 145.377 324.685,145.606 324.775,145.445 324.500 C 145.284 324.225,145.347 324.000,145.584 324.000 C 145.822 324.000,145.937 323.567,145.840 323.034 C 145.602 321.716,145.980 321.462,146.936 322.299 C 147.377 322.685,147.606 322.775,147.445 322.500 C 147.284 322.225,147.347 322.000,147.584 322.000 C 147.822 322.000,147.937 321.567,147.840 321.034 C 147.602 319.716,147.980 319.462,148.936 320.299 C 149.377 320.685,149.606 320.775,149.445 320.500 C 149.284 320.225,149.335 320.000,149.558 320.000 C 149.780 320.000,149.926 319.556,149.881 319.013 C 149.837 318.470,149.977 318.065,150.193 318.113 C 150.410 318.161,150.536 318.499,150.474 318.865 C 150.412 319.230,150.534 319.635,150.744 319.765 C 150.954 319.895,151.040 319.674,150.935 319.273 C 150.830 318.872,151.031 318.306,151.381 318.015 C 151.925 317.564,151.981 317.583,151.765 318.148 C 151.596 318.588,151.693 318.763,152.055 318.670 C 152.355 318.594,152.465 318.607,152.300 318.699 C 152.135 318.791,152.000 337.122,152.000 359.433 L 152.000 400.000 200.204 400.000 L 248.407 400.000 248.304 359.220 C 248.207 321.199,248.246 318.429,248.877 318.264 C 249.700 318.049,250.000 318.309,250.000 319.239 C 250.000 319.666,250.355 319.995,250.900 320.072 C 251.470 320.153,251.846 320.521,251.925 321.075 C 252.002 321.621,252.379 321.998,252.925 322.075 C 253.470 322.153,253.847 322.530,253.925 323.075 C 254.002 323.621,254.379 323.998,254.925 324.075 C 255.470 324.153,255.847 324.530,255.925 325.075 C 256.002 325.621,256.379 325.998,256.925 326.075 C 257.470 326.153,257.847 326.530,257.925 327.075 C 258.002 327.621,258.379 327.998,258.925 328.075 C 259.470 328.153,259.847 328.530,259.925 329.075 C 260.002 329.621,260.379 329.998,260.925 330.075 C 261.470 330.153,261.847 330.530,261.925 331.075 C 262.002 331.621,262.379 331.998,262.925 332.075 C 263.470 332.153,263.847 332.530,263.925 333.075 C 264.002 333.621,264.379 333.998,264.925 334.075 C 265.470 334.153,265.847 334.530,265.925 335.075 C 266.002 335.621,266.379 335.998,266.925 336.075 C 267.470 336.153,267.847 336.530,267.925 337.075 C 268.002 337.621,268.379 337.998,268.925 338.075 C 269.470 338.153,269.847 338.530,269.925 339.075 C 270.002 339.621,270.379 339.998,270.925 340.075 C 271.470 340.153,271.847 340.530,271.925 341.075 C 272.002 341.621,272.379 341.998,272.925 342.075 C 273.470 342.153,273.847 342.530,273.925 343.075 C 274.002 343.621,274.379 343.998,274.925 344.075 C 275.470 344.153,275.847 344.530,275.925 345.075 C 276.002 345.621,276.379 345.998,276.925 346.075 C 277.470 346.153,277.847 346.530,277.925 347.075 C 278.002 347.621,278.379 347.998,278.925 348.075 C 279.470 348.153,279.847 348.530,279.925 349.075 C 280.002 349.621,280.379 349.998,280.925 350.075 C 281.470 350.153,281.847 350.530,281.925 351.075 C 282.002 351.621,282.379 351.998,282.925 352.075 C 283.470 352.153,283.847 352.530,283.925 353.075 C 284.002 353.621,284.379 353.998,284.925 354.075 C 285.470 354.153,285.847 354.530,285.925 355.075 C 286.002 355.621,286.379 355.998,286.925 356.075 C 287.470 356.153,287.847 356.530,287.925 357.075 C 288.002 357.621,288.379 357.998,288.925 358.075 C 289.470 358.153,289.847 358.530,289.925 359.075 C 290.002 359.621,290.379 359.998,290.925 360.075 C 291.470 360.153,291.847 360.530,291.925 361.075 C 292.002 361.621,292.379 361.998,292.925 362.075 C 293.470 362.153,293.847 362.530,293.925 363.075 C 294.002 363.621,294.379 363.998,294.925 364.075 C 295.470 364.153,295.847 364.530,295.925 365.075 C 296.002 365.621,296.379 365.998,296.925 366.075 C 297.470 366.153,297.847 366.530,297.925 367.075 C 298.002 367.621,298.379 367.998,298.925 368.075 C 299.470 368.153,299.847 368.530,299.925 369.075 C 300.002 369.621,300.379 369.998,300.925 370.075 C 301.470 370.153,301.847 370.530,301.925 371.075 C 302.002 371.621,302.379 371.998,302.925 372.075 C 303.479 372.154,303.847 372.530,303.928 373.100 C 303.998 373.595,304.234 374.000,304.451 374.000 C 304.669 374.000,304.716 373.775,304.555 373.500 C 304.394 373.225,304.653 373.343,305.131 373.762 C 305.609 374.181,306.000 374.824,306.000 375.191 C 306.000 375.729,306.387 375.853,307.989 375.829 C 309.804 375.803,309.965 375.724,309.822 374.934 C 309.601 373.712,310.003 373.483,310.936 374.299 C 311.377 374.685,311.606 374.775,311.445 374.500 C 311.284 374.225,311.347 374.000,311.584 374.000 C 311.822 374.000,311.937 373.567,311.840 373.034 C 311.602 371.716,311.980 371.462,312.936 372.299 C 313.377 372.685,313.606 372.775,313.445 372.500 C 313.284 372.225,313.347 372.000,313.584 372.000 C 313.822 372.000,313.937 371.567,313.840 371.034 C 313.602 369.716,313.980 369.462,314.936 370.299 C 315.377 370.685,315.606 370.775,315.445 370.500 C 315.284 370.225,315.347 370.000,315.584 370.000 C 315.822 370.000,315.937 369.567,315.840 369.034 C 315.602 367.716,315.980 367.462,316.936 368.299 C 317.377 368.685,317.606 368.775,317.445 368.500 C 317.284 368.225,317.347 368.000,317.584 368.000 C 317.822 368.000,317.937 367.567,317.840 367.034 C 317.602 365.716,317.980 365.462,318.936 366.299 C 319.377 366.685,319.606 366.775,319.445 366.500 C 319.284 366.225,319.347 366.000,319.584 366.000 C 319.822 366.000,319.937 365.567,319.840 365.034 C 319.602 363.716,319.980 363.462,320.936 364.299 C 321.377 364.685,321.606 364.775,321.445 364.500 C 321.284 364.225,321.347 364.000,321.584 364.000 C 321.822 364.000,321.937 363.567,321.840 363.034 C 321.602 361.716,321.980 361.462,322.936 362.299 C 323.377 362.685,323.606 362.775,323.445 362.500 C 323.284 362.225,323.347 362.000,323.584 362.000 C 323.822 362.000,323.937 361.567,323.840 361.034 C 323.602 359.716,323.980 359.462,324.936 360.299 C 325.377 360.685,325.606 360.775,325.445 360.500 C 325.284 360.225,325.347 360.000,325.584 360.000 C 325.822 360.000,325.937 359.567,325.840 359.034 C 325.602 357.716,325.980 357.462,326.936 358.299 C 327.377 358.685,327.606 358.775,327.445 358.500 C 327.284 358.225,327.347 358.000,327.584 358.000 C 327.822 358.000,327.937 357.567,327.840 357.034 C 327.602 355.716,327.980 355.462,328.936 356.299 C 329.377 356.685,329.606 356.775,329.445 356.500 C 329.284 356.225,329.347 356.000,329.584 356.000 C 329.822 356.000,329.937 355.567,329.840 355.034 C 329.602 353.716,329.980 353.462,330.936 354.299 C 331.377 354.685,331.606 354.775,331.445 354.500 C 331.284 354.225,331.347 354.000,331.584 354.000 C 331.822 354.000,331.937 353.567,331.840 353.034 C 331.602 351.716,331.980 351.462,332.936 352.299 C 333.377 352.685,333.606 352.775,333.445 352.500 C 333.284 352.225,333.347 352.000,333.584 352.000 C 333.822 352.000,333.937 351.567,333.840 351.034 C 333.602 349.716,333.980 349.462,334.936 350.299 C 335.377 350.685,335.606 350.775,335.445 350.500 C 335.284 350.225,335.347 350.000,335.584 350.000 C 335.822 350.000,335.937 349.567,335.840 349.034 C 335.602 347.716,335.980 347.462,336.936 348.299 C 337.377 348.685,337.606 348.775,337.445 348.500 C 337.284 348.225,337.347 348.000,337.584 348.000 C 337.822 348.000,337.937 347.567,337.840 347.034 C 337.602 345.716,337.980 345.462,338.936 346.299 C 339.377 346.685,339.606 346.775,339.445 346.500 C 339.284 346.225,339.347 346.000,339.584 346.000 C 339.822 346.000,339.937 345.567,339.840 345.034 C 339.602 343.716,339.980 343.462,340.936 344.299 C 341.377 344.685,341.606 344.775,341.445 344.500 C 341.284 344.225,341.347 344.000,341.584 344.000 C 341.822 344.000,341.937 343.567,341.840 343.034 C 341.602 341.716,341.980 341.462,342.936 342.299 C 343.377 342.685,343.606 342.775,343.445 342.500 C 343.284 342.225,343.347 342.000,343.584 342.000 C 343.822 342.000,343.937 341.567,343.840 341.034 C 343.602 339.716,343.980 339.462,344.936 340.299 C 345.377 340.685,345.606 340.775,345.445 340.500 C 345.284 340.225,345.347 340.000,345.584 340.000 C 345.822 340.000,345.937 339.567,345.840 339.034 C 345.602 337.716,345.980 337.462,346.936 338.299 C 347.377 338.685,347.606 338.775,347.445 338.500 C 347.284 338.225,347.347 338.000,347.584 338.000 C 347.822 338.000,347.937 337.567,347.840 337.034 C 347.602 335.716,347.980 335.462,348.936 336.299 C 349.377 336.685,349.606 336.775,349.445 336.500 C 349.284 336.225,349.347 336.000,349.584 336.000 C 349.822 336.000,349.937 335.567,349.840 335.034 C 349.602 333.716,349.980 333.462,350.936 334.299 C 351.377 334.685,351.606 334.775,351.445 334.500 C 351.284 334.225,351.347 334.000,351.584 334.000 C 351.822 334.000,351.937 333.567,351.840 333.034 C 351.602 331.716,351.980 331.462,352.936 332.299 C 353.377 332.685,353.606 332.775,353.445 332.500 C 353.284 332.225,353.347 332.000,353.584 332.000 C 353.822 332.000,353.937 331.567,353.840 331.034 C 353.602 329.716,353.980 329.462,354.936 330.299 C 355.377 330.685,355.606 330.775,355.445 330.500 C 355.284 330.225,355.335 330.000,355.558 330.000 C 355.780 330.000,355.926 329.505,355.881 328.900 C 355.810 327.929,355.929 327.810,356.904 327.882 C 357.864 327.953,357.986 327.839,357.837 327.016 C 357.601 325.715,357.984 325.466,358.936 326.299 C 359.377 326.685,359.606 326.775,359.445 326.500 C 359.284 326.225,359.347 326.000,359.584 326.000 C 359.822 326.000,359.937 325.567,359.840 325.034 C 359.602 323.716,359.980 323.462,360.936 324.299 C 361.377 324.685,361.606 324.775,361.445 324.500 C 361.284 324.225,361.347 324.000,361.584 324.000 C 361.822 324.000,361.937 323.567,361.840 323.034 C 361.602 321.716,361.980 321.462,362.936 322.299 C 363.377 322.685,363.606 322.775,363.445 322.500 C 363.284 322.225,363.347 322.000,363.584 322.000 C 363.822 322.000,363.937 321.567,363.840 321.034 C 363.602 319.716,363.980 319.462,364.936 320.299 C 365.377 320.685,365.606 320.775,365.445 320.500 C 365.284 320.225,365.347 320.000,365.584 320.000 C 365.822 320.000,365.937 319.567,365.840 319.034 C 365.602 317.716,365.980 317.462,366.936 318.299 C 367.377 318.685,367.606 318.775,367.445 318.500 C 367.284 318.225,367.347 318.000,367.584 318.000 C 367.822 318.000,367.937 317.567,367.840 317.034 C 367.602 315.716,367.980 315.462,368.936 316.299 C 369.377 316.685,369.606 316.775,369.445 316.500 C 369.284 316.225,369.347 316.000,369.584 316.000 C 369.822 316.000,369.937 315.567,369.840 315.034 C 369.602 313.716,369.980 313.462,370.936 314.299 C 371.377 314.685,371.606 314.775,371.445 314.500 C 371.284 314.225,371.347 314.000,371.584 314.000 C 371.822 314.000,371.937 313.567,371.840 313.034 C 371.602 311.716,371.980 311.462,372.936 312.299 C 373.377 312.685,373.606 312.775,373.445 312.500 C 373.284 312.225,373.347 312.000,373.584 312.000 C 373.822 312.000,373.937 311.567,373.840 311.034 C 373.602 309.716,373.980 309.462,374.936 310.299 C 375.377 310.685,375.615 310.790,375.466 310.534 C 375.317 310.278,375.348 310.008,375.535 309.934 C 376.025 309.741,375.605 306.874,375.059 306.679 C 374.806 306.589,374.915 306.562,375.300 306.620 C 376.211 306.757,376.183 306.554,375.141 305.483 C 374.368 304.688,374.310 304.678,374.558 305.378 C 374.813 306.095,374.779 306.107,374.117 305.530 C 373.723 305.186,373.130 304.789,372.800 304.648 C 372.470 304.507,372.605 304.466,373.100 304.558 C 374.219 304.766,374.225 304.598,373.141 303.483 C 372.368 302.688,372.310 302.678,372.558 303.378 C 372.813 304.095,372.779 304.107,372.117 303.530 C 371.723 303.186,371.130 302.789,370.800 302.648 C 370.470 302.507,370.605 302.466,371.100 302.558 C 372.219 302.766,372.225 302.598,371.141 301.483 C 370.368 300.688,370.310 300.678,370.558 301.378 C 370.813 302.095,370.779 302.107,370.117 301.530 C 369.723 301.186,369.130 300.789,368.800 300.648 C 368.470 300.507,368.605 300.466,369.100 300.558 C 370.219 300.766,370.225 300.598,369.141 299.483 C 368.368 298.688,368.310 298.678,368.558 299.378 C 368.813 300.095,368.779 300.107,368.117 299.530 C 367.723 299.186,367.130 298.789,366.800 298.648 C 366.470 298.507,366.605 298.466,367.100 298.558 C 368.219 298.766,368.225 298.598,367.141 297.483 C 366.368 296.688,366.310 296.678,366.558 297.378 C 366.813 298.095,366.779 298.107,366.117 297.530 C 365.723 297.186,365.130 296.789,364.800 296.648 C 364.470 296.507,364.605 296.466,365.100 296.558 C 366.219 296.766,366.225 296.598,365.141 295.483 C 364.368 294.688,364.310 294.678,364.558 295.378 C 364.813 296.095,364.779 296.107,364.117 295.530 C 363.723 295.186,363.130 294.789,362.800 294.648 C 362.470 294.507,362.605 294.466,363.100 294.558 C 364.219 294.766,364.225 294.598,363.141 293.483 C 362.368 292.688,362.310 292.678,362.558 293.378 C 362.813 294.095,362.779 294.107,362.117 293.530 C 361.723 293.186,361.130 292.789,360.800 292.648 C 360.470 292.507,360.605 292.466,361.100 292.558 C 362.219 292.766,362.225 292.598,361.141 291.483 C 360.368 290.688,360.310 290.678,360.558 291.378 C 360.813 292.095,360.779 292.107,360.117 291.530 C 359.723 291.186,359.130 290.789,358.800 290.648 C 358.470 290.507,358.605 290.466,359.100 290.558 C 360.219 290.766,360.225 290.598,359.141 289.483 C 358.368 288.688,358.310 288.678,358.558 289.378 C 358.828 290.136,358.814 290.137,358.017 289.416 C 357.156 288.636,356.924 288.182,357.600 288.600 C 357.820 288.736,358.000 288.657,358.000 288.424 C 358.000 288.191,357.651 288.000,357.224 288.000 C 356.797 288.000,356.328 287.807,356.183 287.572 C 356.037 287.337,355.532 286.971,355.059 286.761 C 354.207 286.380,354.207 286.379,355.100 286.551 C 356.219 286.767,356.225 286.598,355.141 285.483 C 354.368 284.688,354.310 284.678,354.558 285.378 C 354.813 286.095,354.779 286.107,354.117 285.530 C 353.723 285.186,353.130 284.789,352.800 284.648 C 352.470 284.507,352.605 284.466,353.100 284.558 C 354.219 284.766,354.225 284.598,353.141 283.483 C 352.368 282.688,352.310 282.678,352.558 283.378 C 352.813 284.095,352.779 284.107,352.117 283.530 C 351.723 283.186,351.130 282.789,350.800 282.648 C 350.470 282.507,350.605 282.466,351.100 282.558 C 352.219 282.766,352.225 282.598,351.141 281.483 C 350.368 280.688,350.310 280.678,350.558 281.378 C 350.813 282.095,350.779 282.107,350.117 281.530 C 349.723 281.186,349.130 280.789,348.800 280.648 C 348.470 280.507,348.605 280.466,349.100 280.558 C 350.219 280.766,350.225 280.598,349.141 279.483 C 348.368 278.688,348.310 278.678,348.558 279.378 C 348.813 280.095,348.779 280.107,348.117 279.530 C 347.723 279.186,347.130 278.789,346.800 278.648 C 346.470 278.507,346.605 278.466,347.100 278.558 C 348.219 278.766,348.225 278.598,347.141 277.483 C 346.368 276.688,346.310 276.678,346.558 277.378 C 346.813 278.095,346.779 278.107,346.117 277.530 C 345.723 277.186,345.130 276.789,344.800 276.648 C 344.470 276.507,344.605 276.466,345.100 276.558 C 346.219 276.766,346.225 276.598,345.141 275.483 C 344.368 274.688,344.310 274.678,344.558 275.378 C 344.813 276.095,344.779 276.107,344.117 275.530 C 343.723 275.186,343.130 274.789,342.800 274.648 C 342.470 274.507,342.605 274.466,343.100 274.558 C 344.219 274.766,344.225 274.598,343.141 273.483 C 342.368 272.688,342.310 272.678,342.558 273.378 C 342.813 274.095,342.779 274.107,342.117 273.530 C 341.723 273.186,341.130 272.789,340.800 272.648 C 340.470 272.507,340.605 272.466,341.100 272.558 C 342.219 272.766,342.225 272.598,341.141 271.483 C 340.368 270.688,340.310 270.678,340.558 271.378 C 340.813 272.095,340.779 272.107,340.117 271.530 C 339.723 271.186,339.130 270.789,338.800 270.648 C 338.470 270.507,338.605 270.466,339.100 270.558 C 340.219 270.766,340.225 270.598,339.141 269.483 C 338.368 268.688,338.310 268.678,338.558 269.378 C 338.813 270.095,338.779 270.107,338.117 269.530 C 337.723 269.186,337.130 268.789,336.800 268.648 C 336.470 268.507,336.605 268.466,337.100 268.558 C 338.219 268.766,338.225 268.598,337.141 267.483 C 336.368 266.688,336.310 266.678,336.558 267.378 C 336.813 268.095,336.779 268.107,336.117 267.530 C 335.723 267.186,335.130 266.789,334.800 266.648 C 334.470 266.507,334.605 266.466,335.100 266.558 C 336.219 266.766,336.225 266.598,335.141 265.483 C 334.368 264.688,334.310 264.678,334.558 265.378 C 334.813 266.095,334.779 266.107,334.117 265.530 C 333.723 265.186,333.130 264.789,332.800 264.648 C 332.470 264.507,332.605 264.466,333.100 264.558 C 334.219 264.766,334.225 264.598,333.141 263.483 C 332.368 262.688,332.310 262.678,332.558 263.378 C 332.813 264.095,332.779 264.107,332.117 263.530 C 331.723 263.186,331.130 262.789,330.800 262.648 C 330.470 262.507,330.605 262.466,331.100 262.558 C 332.219 262.766,332.225 262.598,331.141 261.483 C 330.368 260.688,330.310 260.678,330.558 261.378 C 330.813 262.095,330.779 262.107,330.117 261.530 C 329.723 261.186,329.130 260.789,328.800 260.648 C 328.470 260.507,328.605 260.466,329.100 260.558 C 330.219 260.766,330.225 260.598,329.141 259.483 C 328.368 258.688,328.310 258.678,328.558 259.378 C 328.813 260.095,328.779 260.107,328.117 259.530 C 327.723 259.186,327.130 258.789,326.800 258.648 C 326.470 258.507,326.605 258.466,327.100 258.558 C 328.219 258.766,328.225 258.598,327.141 257.483 C 326.368 256.688,326.310 256.678,326.558 257.378 C 326.813 258.095,326.779 258.107,326.117 257.530 C 325.723 257.186,325.130 256.789,324.800 256.648 C 324.470 256.507,324.605 256.466,325.100 256.558 C 326.219 256.766,326.225 256.598,325.141 255.483 C 324.368 254.688,324.310 254.678,324.558 255.378 C 324.813 256.095,324.779 256.107,324.117 255.530 C 323.723 255.186,323.130 254.789,322.800 254.648 C 322.470 254.507,322.605 254.466,323.100 254.558 C 324.219 254.766,324.225 254.598,323.141 253.483 C 322.368 252.688,322.310 252.678,322.558 253.378 C 322.813 254.095,322.779 254.107,322.117 253.530 C 321.723 253.186,321.130 252.789,320.800 252.648 C 320.470 252.507,320.605 252.466,321.100 252.558 C 322.219 252.766,322.225 252.598,321.141 251.483 C 320.368 250.688,320.310 250.678,320.558 251.378 C 320.813 252.095,320.779 252.107,320.117 251.530 C 319.723 251.186,319.130 250.789,318.800 250.648 C 318.470 250.507,318.605 250.466,319.100 250.558 C 320.219 250.766,320.225 250.598,319.141 249.483 C 318.394 248.715,318.317 248.698,318.550 249.357 C 318.775 249.990,318.722 250.033,318.226 249.622 C 317.761 249.235,317.737 249.018,318.117 248.604 C 318.383 248.315,318.645 248.196,318.700 248.339 C 318.755 248.483,337.070 248.553,359.400 248.496 L 400.000 248.392 400.000 200.196 L 400.000 152.000 359.500 151.929 C 337.225 151.889,318.715 151.856,318.366 151.853 C 317.679 151.849,317.535 150.254,318.210 150.126 C 318.424 150.086,318.560 150.356,318.512 150.726 C 318.462 151.105,318.521 151.180,318.646 150.898 C 318.768 150.621,319.061 150.514,319.296 150.659 C 319.549 150.816,319.607 150.735,319.438 150.462 C 319.281 150.208,319.347 150.000,319.584 150.000 C 319.822 150.000,319.937 149.567,319.840 149.034 C 319.602 147.716,319.980 147.462,320.936 148.299 C 321.377 148.685,321.606 148.775,321.445 148.500 C 321.284 148.225,321.347 148.000,321.584 148.000 C 321.822 148.000,321.937 147.567,321.840 147.034 C 321.602 145.716,321.980 145.462,322.936 146.299 C 323.377 146.685,323.606 146.775,323.445 146.500 C 323.284 146.225,323.347 146.000,323.584 146.000 C 323.822 146.000,323.937 145.567,323.840 145.034 C 323.602 143.716,323.980 143.462,324.936 144.299 C 325.377 144.685,325.606 144.775,325.445 144.500 C 325.284 144.225,325.347 144.000,325.584 144.000 C 325.822 144.000,325.937 143.567,325.840 143.034 C 325.602 141.716,325.980 141.462,326.936 142.299 C 327.377 142.685,327.606 142.775,327.445 142.500 C 327.284 142.225,327.347 142.000,327.584 142.000 C 327.822 142.000,327.937 141.567,327.840 141.034 C 327.602 139.716,327.980 139.462,328.936 140.299 C 329.377 140.685,329.606 140.775,329.445 140.500 C 329.284 140.225,329.347 140.000,329.584 140.000 C 329.822 140.000,329.937 139.567,329.840 139.034 C 329.602 137.716,329.980 137.462,330.936 138.299 C 331.377 138.685,331.606 138.775,331.445 138.500 C 331.284 138.225,331.347 138.000,331.584 138.000 C 331.822 138.000,331.937 137.567,331.840 137.034 C 331.602 135.716,331.980 135.462,332.936 136.299 C 333.377 136.685,333.606 136.775,333.445 136.500 C 333.284 136.225,333.347 136.000,333.584 136.000 C 333.822 136.000,333.937 135.567,333.840 135.034 C 333.602 133.716,333.980 133.462,334.936 134.299 C 335.377 134.685,335.606 134.775,335.445 134.500 C 335.284 134.225,335.347 134.000,335.584 134.000 C 335.822 134.000,335.937 133.567,335.840 133.034 C 335.602 131.716,335.980 131.462,336.936 132.299 C 337.377 132.685,337.606 132.775,337.445 132.500 C 337.284 132.225,337.347 132.000,337.584 132.000 C 337.822 132.000,337.937 131.567,337.840 131.034 C 337.602 129.716,337.980 129.462,338.936 130.299 C 339.377 130.685,339.606 130.775,339.445 130.500 C 339.284 130.225,339.347 130.000,339.584 130.000 C 339.822 130.000,339.937 129.567,339.840 129.034 C 339.602 127.716,339.980 127.462,340.936 128.299 C 341.377 128.685,341.606 128.775,341.445 128.500 C 341.284 128.225,341.347 128.000,341.584 128.000 C 341.822 128.000,341.937 127.567,341.840 127.034 C 341.602 125.716,341.980 125.462,342.936 126.299 C 343.377 126.685,343.606 126.775,343.445 126.500 C 343.284 126.225,343.347 126.000,343.584 126.000 C 343.822 126.000,343.937 125.567,343.840 125.034 C 343.602 123.716,343.980 123.462,344.936 124.299 C 345.377 124.685,345.606 124.775,345.445 124.500 C 345.284 124.225,345.347 124.000,345.584 124.000 C 345.822 124.000,345.937 123.567,345.840 123.034 C 345.602 121.716,345.980 121.462,346.936 122.299 C 347.377 122.685,347.606 122.775,347.445 122.500 C 347.284 122.225,347.347 122.000,347.584 122.000 C 347.822 122.000,347.937 121.567,347.840 121.034 C 347.602 119.716,347.980 119.462,348.936 120.299 C 349.377 120.685,349.606 120.775,349.445 120.500 C 349.284 120.225,349.347 120.000,349.584 120.000 C 349.822 120.000,349.937 119.567,349.840 119.034 C 349.602 117.716,349.980 117.462,350.936 118.299 C 351.377 118.685,351.606 118.775,351.445 118.500 C 351.284 118.225,351.347 118.000,351.584 118.000 C 351.822 118.000,351.937 117.567,351.840 117.034 C 351.602 115.716,351.980 115.462,352.936 116.299 C 353.377 116.685,353.606 116.775,353.445 116.500 C 353.284 116.225,353.347 116.000,353.584 116.000 C 353.822 116.000,353.937 115.567,353.840 115.034 C 353.602 113.716,353.980 113.462,354.936 114.299 C 355.377 114.685,355.606 114.775,355.445 114.500 C 355.284 114.225,355.335 114.000,355.558 114.000 C 355.780 114.000,355.926 113.505,355.881 112.900 C 355.810 111.929,355.929 111.810,356.904 111.882 C 357.864 111.953,357.986 111.839,357.837 111.016 C 357.601 109.715,357.984 109.466,358.936 110.299 C 359.377 110.685,359.606 110.775,359.445 110.500 C 359.284 110.225,359.347 110.000,359.584 110.000 C 359.822 110.000,359.937 109.567,359.840 109.034 C 359.602 107.716,359.980 107.462,360.936 108.299 C 361.377 108.685,361.606 108.775,361.445 108.500 C 361.284 108.225,361.347 108.000,361.584 108.000 C 361.822 108.000,361.937 107.567,361.840 107.034 C 361.602 105.716,361.980 105.462,362.936 106.299 C 363.377 106.685,363.606 106.775,363.445 106.500 C 363.284 106.225,363.347 106.000,363.584 106.000 C 363.822 106.000,363.937 105.567,363.840 105.034 C 363.602 103.716,363.980 103.462,364.936 104.299 C 365.377 104.685,365.606 104.775,365.445 104.500 C 365.284 104.225,365.347 104.000,365.584 104.000 C 365.822 104.000,365.937 103.567,365.840 103.034 C 365.602 101.716,365.980 101.462,366.936 102.299 C 367.377 102.685,367.606 102.775,367.445 102.500 C 367.284 102.225,367.347 102.000,367.584 102.000 C 367.822 102.000,367.937 101.567,367.840 101.034 C 367.602 99.716,367.980 99.462,368.936 100.299 C 369.377 100.685,369.606 100.775,369.445 100.500 C 369.284 100.225,369.347 100.000,369.584 100.000 C 369.822 100.000,369.937 99.567,369.840 99.034 C 369.602 97.716,369.980 97.462,370.936 98.299 C 371.377 98.685,371.606 98.775,371.445 98.500 C 371.284 98.225,371.347 98.000,371.584 98.000 C 371.822 98.000,371.937 97.567,371.840 97.034 C 371.602 95.716,371.980 95.462,372.936 96.299 C 373.377 96.685,373.606 96.775,373.445 96.500 C 373.284 96.225,373.347 96.000,373.584 96.000 C 373.822 96.000,373.937 95.567,373.840 95.034 C 373.602 93.716,373.980 93.462,374.936 94.299 C 375.377 94.685,375.615 94.790,375.466 94.534 C 375.317 94.278,375.348 94.008,375.535 93.934 C 376.025 93.741,375.605 90.874,375.059 90.679 C 374.806 90.589,374.915 90.562,375.300 90.620 C 376.211 90.757,376.183 90.554,375.141 89.483 C 374.368 88.688,374.310 88.678,374.558 89.378 C 374.813 90.095,374.779 90.107,374.117 89.530 C 373.723 89.186,373.130 88.789,372.800 88.648 C 372.470 88.507,372.605 88.466,373.100 88.558 C 374.219 88.766,374.225 88.598,373.141 87.483 C 372.368 86.688,372.310 86.678,372.558 87.378 C 372.813 88.095,372.779 88.107,372.117 87.530 C 371.723 87.186,371.130 86.789,370.800 86.648 C 370.470 86.507,370.605 86.466,371.100 86.558 C 372.219 86.766,372.225 86.598,371.141 85.483 C 370.368 84.688,370.310 84.678,370.558 85.378 C 370.813 86.095,370.779 86.107,370.117 85.530 C 369.723 85.186,369.130 84.789,368.800 84.648 C 368.470 84.507,368.605 84.466,369.100 84.558 C 370.219 84.766,370.225 84.598,369.141 83.483 C 368.368 82.688,368.310 82.678,368.558 83.378 C 368.813 84.095,368.779 84.107,368.117 83.530 C 367.723 83.186,367.130 82.789,366.800 82.648 C 366.470 82.507,366.605 82.466,367.100 82.558 C 368.219 82.766,368.225 82.598,367.141 81.483 C 366.368 80.688,366.310 80.678,366.558 81.378 C 366.813 82.095,366.779 82.107,366.117 81.530 C 365.723 81.186,365.130 80.789,364.800 80.648 C 364.470 80.507,364.605 80.466,365.100 80.558 C 366.219 80.766,366.225 80.598,365.141 79.483 C 364.368 78.688,364.310 78.678,364.558 79.378 C 364.813 80.095,364.779 80.107,364.117 79.530 C 363.723 79.186,363.130 78.789,362.800 78.648 C 362.470 78.507,362.605 78.466,363.100 78.558 C 364.219 78.766,364.225 78.598,363.141 77.483 C 362.368 76.688,362.310 76.678,362.558 77.378 C 362.813 78.095,362.779 78.107,362.117 77.530 C 361.723 77.186,361.130 76.789,360.800 76.648 C 360.470 76.507,360.605 76.466,361.100 76.558 C 362.219 76.766,362.225 76.598,361.141 75.483 C 360.368 74.688,360.310 74.678,360.558 75.378 C 360.813 76.095,360.779 76.107,360.117 75.530 C 359.723 75.186,359.130 74.789,358.800 74.648 C 358.470 74.507,358.605 74.466,359.100 74.558 C 360.219 74.766,360.225 74.598,359.141 73.483 C 358.368 72.688,358.310 72.678,358.558 73.378 C 358.828 74.136,358.814 74.137,358.017 73.416 C 357.156 72.636,356.924 72.182,357.600 72.600 C 357.820 72.736,358.000 72.657,358.000 72.424 C 358.000 72.191,357.651 72.000,357.224 72.000 C 356.797 72.000,356.328 71.807,356.183 71.572 C 356.037 71.337,355.532 70.971,355.059 70.761 C 354.207 70.380,354.207 70.379,355.100 70.551 C 356.219 70.767,356.225 70.598,355.141 69.483 C 354.368 68.688,354.310 68.678,354.558 69.378 C 354.813 70.095,354.779 70.107,354.117 69.530 C 353.723 69.186,353.130 68.789,352.800 68.648 C 352.470 68.507,352.605 68.466,353.100 68.558 C 354.219 68.766,354.225 68.598,353.141 67.483 C 352.368 66.688,352.310 66.678,352.558 67.378 C 352.813 68.095,352.779 68.107,352.117 67.530 C 351.723 67.186,351.130 66.789,350.800 66.648 C 350.470 66.507,350.605 66.466,351.100 66.558 C 352.219 66.766,352.225 66.598,351.141 65.483 C 350.368 64.688,350.310 64.678,350.558 65.378 C 350.813 66.095,350.779 66.107,350.117 65.530 C 349.723 65.186,349.130 64.789,348.800 64.648 C 348.470 64.507,348.605 64.466,349.100 64.558 C 350.219 64.766,350.225 64.598,349.141 63.483 C 348.368 62.688,348.310 62.678,348.558 63.378 C 348.813 64.095,348.779 64.107,348.117 63.530 C 347.723 63.186,347.130 62.789,346.800 62.648 C 346.470 62.507,346.605 62.466,347.100 62.558 C 348.219 62.766,348.225 62.598,347.141 61.483 C 346.368 60.688,346.310 60.678,346.558 61.378 C 346.813 62.095,346.779 62.107,346.117 61.530 C 345.723 61.186,345.130 60.789,344.800 60.648 C 344.470 60.507,344.605 60.466,345.100 60.558 C 346.219 60.766,346.225 60.598,345.141 59.483 C 344.368 58.688,344.310 58.678,344.558 59.378 C 344.813 60.095,344.779 60.107,344.117 59.530 C 343.723 59.186,343.130 58.789,342.800 58.648 C 342.470 58.507,342.605 58.466,343.100 58.558 C 344.219 58.766,344.225 58.598,343.141 57.483 C 342.368 56.688,342.310 56.678,342.558 57.378 C 342.813 58.095,342.779 58.107,342.117 57.530 C 341.723 57.186,341.130 56.789,340.800 56.648 C 340.470 56.507,340.605 56.466,341.100 56.558 C 342.219 56.766,342.225 56.598,341.141 55.483 C 340.368 54.688,340.310 54.678,340.558 55.378 C 340.813 56.095,340.779 56.107,340.117 55.530 C 339.723 55.186,339.130 54.789,338.800 54.648 C 338.470 54.507,338.605 54.466,339.100 54.558 C 340.219 54.766,340.225 54.598,339.141 53.483 C 338.368 52.688,338.310 52.678,338.558 53.378 C 338.813 54.095,338.779 54.107,338.117 53.530 C 337.723 53.186,337.130 52.789,336.800 52.648 C 336.470 52.507,336.605 52.466,337.100 52.558 C 338.219 52.766,338.225 52.598,337.141 51.483 C 336.368 50.688,336.310 50.678,336.558 51.378 C 336.813 52.095,336.779 52.107,336.117 51.530 C 335.723 51.186,335.130 50.789,334.800 50.648 C 334.470 50.507,334.605 50.466,335.100 50.558 C 336.219 50.766,336.225 50.598,335.141 49.483 C 334.368 48.688,334.310 48.678,334.558 49.378 C 334.813 50.095,334.779 50.107,334.117 49.530 C 333.723 49.186,333.130 48.789,332.800 48.648 C 332.470 48.507,332.605 48.466,333.100 48.558 C 334.219 48.766,334.225 48.598,333.141 47.483 C 332.368 46.688,332.310 46.678,332.558 47.378 C 332.813 48.095,332.779 48.107,332.117 47.530 C 331.723 47.186,331.130 46.789,330.800 46.648 C 330.470 46.507,330.605 46.466,331.100 46.558 C 332.219 46.766,332.225 46.598,331.141 45.483 C 330.368 44.688,330.310 44.678,330.558 45.378 C 330.813 46.095,330.779 46.107,330.117 45.530 C 329.723 45.186,329.130 44.789,328.800 44.648 C 328.470 44.507,328.605 44.466,329.100 44.558 C 330.219 44.766,330.225 44.598,329.141 43.483 C 328.368 42.688,328.310 42.678,328.558 43.378 C 328.813 44.095,328.779 44.107,328.117 43.530 C 327.723 43.186,327.130 42.789,326.800 42.648 C 326.470 42.507,326.605 42.466,327.100 42.558 C 328.219 42.766,328.225 42.598,327.141 41.483 C 326.368 40.688,326.310 40.678,326.558 41.378 C 326.813 42.095,326.779 42.107,326.117 41.530 C 325.723 41.186,325.130 40.789,324.800 40.648 C 324.470 40.507,324.605 40.466,325.100 40.558 C 326.219 40.766,326.225 40.598,325.141 39.483 C 324.368 38.688,324.310 38.678,324.558 39.378 C 324.813 40.095,324.779 40.107,324.117 39.530 C 323.723 39.186,323.130 38.789,322.800 38.648 C 322.470 38.507,322.605 38.466,323.100 38.558 C 324.219 38.766,324.225 38.598,323.141 37.483 C 322.368 36.688,322.310 36.678,322.558 37.378 C 322.813 38.095,322.779 38.107,322.117 37.530 C 321.723 37.186,321.130 36.789,320.800 36.648 C 320.470 36.507,320.605 36.466,321.100 36.558 C 322.219 36.766,322.225 36.598,321.141 35.483 C 320.368 34.688,320.310 34.678,320.558 35.378 C 320.813 36.095,320.779 36.107,320.117 35.530 C 319.723 35.186,319.130 34.789,318.800 34.648 C 318.470 34.507,318.605 34.466,319.100 34.558 C 320.219 34.766,320.225 34.598,319.141 33.483 C 318.368 32.688,318.310 32.678,318.558 33.378 C 318.813 34.095,318.779 34.107,318.117 33.530 C 317.723 33.186,317.130 32.789,316.800 32.648 C 316.470 32.507,316.605 32.466,317.100 32.558 C 318.219 32.766,318.225 32.598,317.141 31.483 C 316.368 30.688,316.310 30.678,316.558 31.378 C 316.813 32.095,316.779 32.107,316.117 31.530 C 315.723 31.186,315.130 30.789,314.800 30.648 C 314.470 30.507,314.605 30.466,315.100 30.558 C 316.219 30.766,316.225 30.598,315.141 29.483 C 314.368 28.688,314.310 28.678,314.558 29.378 C 314.813 30.095,314.779 30.107,314.117 29.530 C 313.723 29.186,313.130 28.789,312.800 28.648 C 312.470 28.507,312.605 28.466,313.100 28.558 C 314.219 28.766,314.225 28.598,313.141 27.483 C 312.368 26.688,312.310 26.678,312.558 27.378 C 312.813 28.095,312.779 28.107,312.117 27.530 C 311.723 27.186,311.130 26.789,310.800 26.648 C 310.470 26.507,310.605 26.466,311.100 26.558 C 312.219 26.766,312.225 26.598,311.141 25.483 C 310.368 24.688,310.310 24.678,310.558 25.378 C 310.828 26.136,310.814 26.137,310.017 25.416 C 309.156 24.636,308.924 24.182,309.600 24.600 C 309.820 24.736,310.000 24.638,310.000 24.382 C 310.000 24.082,309.447 23.969,308.449 24.064 C 307.319 24.172,306.950 24.074,307.091 23.706 C 307.198 23.428,307.086 23.200,306.843 23.200 C 306.599 23.200,306.400 23.470,306.400 23.800 C 306.400 24.130,306.085 24.403,305.700 24.406 C 305.106 24.411,305.090 24.469,305.597 24.789 C 306.082 25.096,306.098 25.262,305.680 25.680 C 305.262 26.098,305.096 26.082,304.789 25.597 C 304.469 25.090,304.411 25.106,304.406 25.700 C 304.403 26.095,304.095 26.403,303.700 26.406 C 303.103 26.411,303.089 26.468,303.600 26.792 C 304.123 27.122,304.108 27.263,303.478 27.886 C 302.803 28.554,302.774 28.555,303.021 27.900 C 303.174 27.496,303.099 27.200,302.843 27.200 C 302.599 27.200,302.400 27.470,302.400 27.800 C 302.400 28.130,302.085 28.403,301.700 28.406 C 301.103 28.411,301.089 28.468,301.600 28.792 C 302.123 29.122,302.108 29.263,301.478 29.886 C 300.803 30.554,300.774 30.555,301.021 29.900 C 301.174 29.496,301.099 29.200,300.843 29.200 C 300.599 29.200,300.400 29.470,300.400 29.800 C 300.400 30.130,300.085 30.403,299.700 30.406 C 299.103 30.411,299.089 30.468,299.600 30.792 C 300.123 31.122,300.108 31.263,299.478 31.886 C 298.803 32.554,298.774 32.555,299.021 31.900 C 299.174 31.496,299.099 31.200,298.843 31.200 C 298.599 31.200,298.400 31.470,298.400 31.800 C 298.400 32.130,298.085 32.403,297.700 32.406 C 297.103 32.411,297.089 32.468,297.600 32.792 C 298.123 33.122,298.108 33.263,297.478 33.886 C 296.803 34.554,296.774 34.555,297.021 33.900 C 297.174 33.496,297.099 33.200,296.843 33.200 C 296.599 33.200,296.400 33.470,296.400 33.800 C 296.400 34.130,296.085 34.403,295.700 34.406 C 295.103 34.411,295.089 34.468,295.600 34.792 C 296.123 35.122,296.108 35.263,295.478 35.886 C 294.803 36.554,294.774 36.555,295.021 35.900 C 295.174 35.496,295.099 35.200,294.843 35.200 C 294.599 35.200,294.400 35.470,294.400 35.800 C 294.400 36.130,294.085 36.403,293.700 36.406 C 293.103 36.411,293.089 36.468,293.600 36.792 C 294.123 37.122,294.108 37.263,293.478 37.886 C 292.803 38.554,292.774 38.555,293.021 37.900 C 293.174 37.496,293.099 37.200,292.843 37.200 C 292.599 37.200,292.400 37.470,292.400 37.800 C 292.400 38.130,292.085 38.403,291.700 38.406 C 291.103 38.411,291.089 38.468,291.600 38.792 C 292.123 39.122,292.108 39.263,291.478 39.886 C 290.803 40.554,290.774 40.555,291.021 39.900 C 291.174 39.496,291.099 39.200,290.843 39.200 C 290.599 39.200,290.400 39.470,290.400 39.800 C 290.400 40.130,290.085 40.403,289.700 40.406 C 289.103 40.411,289.089 40.468,289.600 40.792 C 290.123 41.122,290.108 41.263,289.478 41.886 C 288.803 42.554,288.774 42.555,289.021 41.900 C 289.174 41.496,289.099 41.200,288.843 41.200 C 288.599 41.200,288.400 41.470,288.400 41.800 C 288.400 42.130,288.085 42.403,287.700 42.406 C 287.103 42.411,287.089 42.468,287.600 42.792 C 288.123 43.122,288.108 43.263,287.478 43.886 C 286.803 44.554,286.774 44.555,287.021 43.900 C 287.174 43.496,287.099 43.200,286.843 43.200 C 286.599 43.200,286.400 43.470,286.400 43.800 C 286.400 44.130,286.085 44.403,285.700 44.406 C 285.103 44.411,285.089 44.468,285.600 44.792 C 286.123 45.122,286.108 45.263,285.478 45.886 C 284.803 46.554,284.774 46.555,285.021 45.900 C 285.174 45.496,285.099 45.200,284.843 45.200 C 284.599 45.200,284.400 45.470,284.400 45.800 C 284.400 46.130,284.085 46.403,283.700 46.406 C 283.103 46.411,283.089 46.468,283.600 46.792 C 284.123 47.122,284.108 47.263,283.478 47.886 C 282.803 48.554,282.774 48.555,283.021 47.900 C 283.174 47.496,283.099 47.200,282.843 47.200 C 282.599 47.200,282.400 47.470,282.400 47.800 C 282.400 48.130,282.085 48.403,281.700 48.406 C 281.103 48.411,281.089 48.468,281.600 48.792 C 282.123 49.122,282.108 49.263,281.478 49.886 C 280.803 50.554,280.774 50.555,281.021 49.900 C 281.174 49.496,281.099 49.200,280.843 49.200 C 280.599 49.200,280.400 49.470,280.400 49.800 C 280.400 50.130,280.085 50.403,279.700 50.406 C 279.103 50.411,279.089 50.468,279.600 50.792 C 280.123 51.122,280.108 51.263,279.478 51.886 C 278.803 52.554,278.774 52.555,279.021 51.900 C 279.174 51.496,279.099 51.200,278.843 51.200 C 278.599 51.200,278.400 51.470,278.400 51.800 C 278.400 52.130,278.085 52.403,277.700 52.406 C 277.103 52.411,277.089 52.468,277.600 52.792 C 278.123 53.122,278.108 53.263,277.478 53.886 C 276.803 54.554,276.774 54.555,277.021 53.900 C 277.174 53.496,277.099 53.200,276.843 53.200 C 276.599 53.200,276.400 53.470,276.400 53.800 C 276.400 54.130,276.085 54.403,275.700 54.406 C 275.103 54.411,275.089 54.468,275.600 54.792 C 276.123 55.122,276.108 55.263,275.478 55.886 C 274.803 56.554,274.774 56.555,275.021 55.900 C 275.174 55.496,275.099 55.200,274.843 55.200 C 274.599 55.200,274.400 55.470,274.400 55.800 C 274.400 56.130,274.085 56.403,273.700 56.406 C 273.103 56.411,273.089 56.468,273.600 56.792 C 274.123 57.122,274.108 57.263,273.478 57.886 C 272.803 58.554,272.774 58.555,273.021 57.900 C 273.174 57.496,273.099 57.200,272.843 57.200 C 272.599 57.200,272.400 57.470,272.400 57.800 C 272.400 58.130,272.085 58.403,271.700 58.406 C 271.103 58.411,271.089 58.468,271.600 58.792 C 272.123 59.122,272.108 59.263,271.478 59.886 C 270.803 60.554,270.774 60.555,271.021 59.900 C 271.174 59.496,271.099 59.200,270.843 59.200 C 270.599 59.200,270.400 59.470,270.400 59.800 C 270.400 60.130,270.085 60.403,269.700 60.406 C 269.103 60.411,269.089 60.468,269.600 60.792 C 270.123 61.122,270.108 61.263,269.478 61.886 C 268.803 62.554,268.774 62.555,269.021 61.900 C 269.174 61.496,269.099 61.200,268.843 61.200 C 268.599 61.200,268.400 61.470,268.400 61.800 C 268.400 62.130,268.085 62.403,267.700 62.406 C 267.103 62.411,267.089 62.468,267.600 62.792 C 268.123 63.122,268.108 63.263,267.478 63.886 C 266.803 64.554,266.774 64.555,267.021 63.900 C 267.174 63.496,267.099 63.200,266.843 63.200 C 266.599 63.200,266.400 63.470,266.400 63.800 C 266.400 64.130,266.085 64.403,265.700 64.406 C 265.103 64.411,265.089 64.468,265.600 64.792 C 266.123 65.122,266.108 65.263,265.478 65.886 C 264.803 66.554,264.774 66.555,265.021 65.900 C 265.174 65.496,265.099 65.200,264.843 65.200 C 264.599 65.200,264.400 65.470,264.400 65.800 C 264.400 66.130,264.085 66.403,263.700 66.406 C 263.103 66.411,263.089 66.468,263.600 66.792 C 264.123 67.122,264.108 67.263,263.478 67.886 C 262.803 68.554,262.774 68.555,263.021 67.900 C 263.174 67.496,263.099 67.200,262.843 67.200 C 262.599 67.200,262.400 67.470,262.400 67.800 C 262.400 68.130,262.085 68.403,261.700 68.406 C 261.103 68.411,261.089 68.468,261.600 68.792 C 262.123 69.122,262.108 69.263,261.478 69.886 C 260.803 70.554,260.774 70.555,261.021 69.900 C 261.174 69.496,261.099 69.200,260.843 69.200 C 260.599 69.200,260.400 69.470,260.400 69.800 C 260.400 70.130,260.085 70.403,259.700 70.406 C 259.103 70.411,259.089 70.468,259.600 70.792 C 260.123 71.122,260.108 71.263,259.478 71.886 C 258.803 72.554,258.774 72.555,259.021 71.900 C 259.174 71.496,259.099 71.200,258.843 71.200 C 258.599 71.200,258.400 71.470,258.400 71.800 C 258.400 72.130,258.085 72.403,257.700 72.406 C 257.103 72.411,257.089 72.468,257.600 72.792 C 258.123 73.122,258.108 73.263,257.478 73.886 C 256.803 74.554,256.774 74.555,257.021 73.900 C 257.174 73.496,257.099 73.200,256.843 73.200 C 256.599 73.200,256.400 73.470,256.400 73.800 C 256.400 74.130,256.085 74.403,255.700 74.406 C 255.103 74.411,255.089 74.468,255.600 74.792 C 256.123 75.122,256.108 75.263,255.478 75.886 C 254.803 76.554,254.774 76.555,255.021 75.900 C 255.174 75.496,255.099 75.200,254.843 75.200 C 254.599 75.200,254.400 75.470,254.400 75.800 C 254.400 76.130,254.085 76.403,253.700 76.406 C 253.103 76.411,253.089 76.468,253.600 76.792 C 254.123 77.122,254.108 77.263,253.478 77.886 C 252.803 78.554,252.774 78.555,253.021 77.900 C 253.174 77.496,253.099 77.200,252.843 77.200 C 252.599 77.200,252.400 77.470,252.400 77.800 C 252.400 78.130,252.085 78.403,251.700 78.406 C 251.103 78.411,251.089 78.468,251.600 78.792 C 252.123 79.122,252.108 79.263,251.478 79.886 C 250.803 80.554,250.774 80.555,251.021 79.900 C 251.174 79.496,251.099 79.200,250.843 79.200 C 250.599 79.200,250.400 79.470,250.400 79.800 C 250.400 80.130,250.085 80.403,249.700 80.406 C 249.125 80.411,249.103 80.477,249.574 80.776 C 250.043 81.072,250.055 81.252,249.640 81.752 C 249.360 82.089,249.229 82.523,249.348 82.716 C 249.467 82.909,249.314 83.067,249.008 83.067 C 248.701 83.067,248.465 82.693,248.482 82.233 C 248.499 81.775,248.488 63.085,248.457 40.700 L 248.400 0.000 200.200 0.000 L 152.000 0.000 152.000 40.814 M92.454 25.519 C 91.933 25.601,91.343 25.503,91.141 25.301 C 90.919 25.079,91.293 25.021,92.087 25.152 C 93.198 25.337,93.255 25.393,92.454 25.519 M308.454 25.519 C 307.933 25.601,307.343 25.503,307.141 25.301 C 306.919 25.079,307.293 25.021,308.087 25.152 C 309.198 25.337,309.255 25.393,308.454 25.519 M177.000 107.600 C 189.319 119.920,199.706 130.000,200.082 130.000 C 200.459 130.000,210.810 119.963,223.084 107.697 C 246.481 84.313,247.197 83.691,248.448 85.664 C 248.635 85.959,248.791 100.825,248.794 118.700 L 248.800 151.200 281.300 151.206 C 299.175 151.209,313.998 151.344,314.240 151.506 C 316.507 153.020,317.432 151.936,293.039 176.354 C 275.297 194.114,270.400 199.231,270.400 200.008 C 270.400 200.786,275.201 205.802,292.595 223.199 C 311.026 241.632,318.079 249.179,315.229 247.418 C 315.043 247.303,314.797 247.567,314.683 248.004 C 314.477 248.790,314.077 248.800,281.637 248.800 L 248.800 248.800 248.800 281.576 C 248.800 303.284,248.663 314.437,248.395 314.603 C 246.455 315.802,246.613 315.940,223.341 292.661 C 205.259 274.574,200.890 270.400,200.038 270.400 C 199.187 270.400,194.831 274.561,176.804 292.600 C 155.559 313.858,154.555 314.800,153.151 314.800 C 151.085 314.800,151.200 316.779,151.200 281.167 L 151.200 248.800 118.700 248.794 C 100.825 248.791,85.959 248.635,85.664 248.448 C 83.691 247.197,84.313 246.481,107.697 223.084 C 120.700 210.072,130.000 200.466,130.000 200.045 C 130.000 199.623,120.663 189.982,107.600 176.914 C 86.475 155.781,85.200 154.425,85.200 153.096 C 85.200 151.095,83.331 151.200,118.833 151.200 L 151.200 151.200 151.200 118.833 C 151.200 83.235,151.086 85.200,153.144 85.200 C 154.538 85.200,155.593 86.190,177.000 107.600 M25.600 91.957 C 25.600 92.594,25.369 93.203,25.086 93.312 C 24.712 93.455,24.614 93.139,24.729 92.155 C 24.922 90.503,25.600 90.349,25.600 91.957 M376.400 92.176 C 376.400 92.933,376.538 93.638,376.707 93.743 C 376.876 93.847,376.948 93.228,376.865 92.366 C 376.681 90.432,376.400 90.318,376.400 92.176 M356.306 112.885 C 356.419 113.315,356.623 113.517,356.760 113.334 C 356.897 113.150,357.149 112.888,357.321 112.751 C 357.492 112.614,357.287 112.412,356.867 112.302 C 356.264 112.144,356.145 112.268,356.306 112.885 M25.600 307.957 C 25.600 308.594,25.369 309.203,25.086 309.312 C 24.712 309.455,24.614 309.139,24.729 308.155 C 24.922 306.503,25.600 306.349,25.600 307.957 M376.400 308.176 C 376.400 308.933,376.538 309.638,376.707 309.743 C 376.876 309.847,376.948 309.228,376.865 308.366 C 376.681 306.432,376.400 306.318,376.400 308.176 M356.306 328.885 C 356.419 329.315,356.623 329.517,356.760 329.334 C 356.897 329.150,357.149 328.888,357.321 328.751 C 357.492 328.614,357.287 328.412,356.867 328.302 C 356.264 328.144,356.145 328.268,356.306 328.885 M91.700 376.676 C 92.085 376.776,92.715 376.776,93.100 376.676 C 93.485 376.575,93.170 376.493,92.400 376.493 C 91.630 376.493,91.315 376.575,91.700 376.676 M307.700 376.676 C 308.085 376.776,308.715 376.776,309.100 376.676 C 309.485 376.575,309.170 376.493,308.400 376.493 C 307.630 376.493,307.315 376.575,307.700 376.676 " stroke="none" fill="#fcbc14" fill-rule="evenodd"></path><path id="path2" d="M182.000 152.736 C 181.450 152.881,180.255 153.485,179.344 154.077 C 177.188 155.480,155.691 176.976,153.943 179.478 L 152.600 181.400 152.600 200.200 L 152.600 219.000 153.500 219.900 C 153.995 220.395,154.400 220.995,154.400 221.233 C 154.400 221.898,177.151 244.510,179.222 245.904 C 182.001 247.775,184.225 248.000,199.941 248.000 C 221.212 248.000,218.229 249.293,234.230 233.136 C 249.340 217.877,248.000 221.108,248.000 199.941 C 248.000 184.083,247.788 182.062,245.811 179.028 C 244.350 176.787,222.055 154.400,221.284 154.400 C 221.018 154.400,220.395 153.995,219.900 153.500 L 219.001 152.600 201.000 152.536 C 191.100 152.501,182.550 152.591,182.000 152.736 " stroke="none" fill="#ec342c" fill-rule="evenodd"></path><path id="path3" d="M190.238 142.613 C 185.479 147.350,181.093 151.444,180.492 151.711 C 179.742 152.045,175.309 152.260,166.333 152.398 C 159.146 152.509,153.116 152.750,152.933 152.933 C 152.750 153.116,152.507 159.146,152.393 166.333 C 152.252 175.198,152.031 179.751,151.706 180.492 C 151.442 181.093,147.350 185.479,142.613 190.238 C 135.298 197.587,134.000 199.069,134.000 200.071 C 134.000 201.074,135.291 202.542,142.631 209.882 C 147.379 214.629,151.471 218.983,151.724 219.557 C 152.027 220.240,152.257 225.105,152.393 233.667 C 152.507 240.854,152.750 246.884,152.932 247.067 C 153.115 247.250,159.055 247.504,166.132 247.631 C 173.429 247.762,179.532 248.044,180.229 248.282 C 180.980 248.540,184.904 252.146,190.316 257.552 C 196.703 263.932,199.429 266.400,200.090 266.400 C 200.752 266.400,203.396 263.999,209.603 257.760 C 220.399 246.908,218.095 247.872,233.868 247.612 C 240.945 247.495,246.885 247.250,247.068 247.068 C 247.250 246.885,247.515 240.945,247.655 233.868 C 247.796 226.790,248.037 220.533,248.190 219.962 C 248.352 219.361,252.241 215.155,257.435 209.965 C 264.168 203.237,266.400 200.766,266.400 200.042 C 266.400 199.318,264.166 196.842,257.442 190.115 C 246.887 179.554,247.963 182.189,247.650 166.132 C 247.513 159.055,247.250 153.115,247.067 152.932 C 246.884 152.750,240.854 152.507,233.667 152.393 C 225.300 152.260,220.240 152.024,219.600 151.736 C 219.050 151.489,214.712 147.397,209.960 142.643 C 202.501 135.182,201.153 134.000,200.105 134.000 C 199.058 134.000,197.697 135.188,190.238 142.613 M219.900 153.500 C 220.395 153.995,221.018 154.400,221.284 154.400 C 222.055 154.400,244.350 176.787,245.811 179.028 C 247.788 182.062,248.000 184.083,248.000 199.941 C 248.000 221.108,249.340 217.877,234.230 233.136 C 218.229 249.293,221.212 248.000,199.941 248.000 C 184.225 248.000,182.001 247.775,179.222 245.904 C 177.151 244.510,154.400 221.898,154.400 221.233 C 154.400 220.995,153.995 220.395,153.500 219.900 L 152.600 219.000 152.600 200.200 L 152.600 181.400 153.943 179.478 C 155.691 176.976,177.188 155.480,179.344 154.077 C 181.834 152.458,181.691 152.468,201.000 152.536 L 219.001 152.600 219.900 153.500 " stroke="none" fill="#ec542b" fill-rule="evenodd"></path><path id="path4" d="M151.452 86.100 C 151.319 86.595,151.208 101.445,151.205 119.100 L 151.200 151.200 118.829 151.200 C 89.933 151.200,86.390 151.267,85.829 151.829 C 84.174 153.483,84.148 153.453,107.600 176.914 C 120.681 190.000,130.000 199.623,130.000 200.045 C 130.000 200.468,120.872 209.893,108.058 222.702 C 85.772 244.980,85.200 245.596,85.200 247.331 C 85.200 248.834,84.427 248.800,118.833 248.800 L 151.200 248.800 151.200 281.167 C 151.200 316.765,151.086 314.800,153.144 314.800 C 154.538 314.800,155.586 313.816,176.800 292.600 C 194.796 274.602,199.195 270.400,200.042 270.400 C 200.889 270.400,205.291 274.606,223.306 292.626 L 245.526 314.853 247.063 314.726 L 248.600 314.600 248.702 281.700 L 248.805 248.800 281.612 248.800 L 314.420 248.800 314.820 247.747 C 315.469 246.040,315.712 246.308,292.602 223.200 C 275.162 205.761,270.400 200.787,270.400 200.005 C 270.400 199.223,275.216 194.190,292.853 176.543 C 314.193 155.191,315.292 154.021,315.021 152.943 C 314.575 151.165,315.495 151.213,281.300 151.206 L 248.800 151.200 248.800 118.833 C 248.800 84.427,248.834 85.200,247.331 85.200 C 245.596 85.200,244.980 85.772,222.702 108.058 C 210.639 120.126,200.463 130.000,200.089 130.000 C 199.715 130.000,189.324 119.920,176.996 107.600 C 155.654 86.270,154.514 85.200,153.138 85.200 C 151.978 85.200,151.646 85.377,151.452 86.100 M177.799 110.374 C 194.460 127.057,199.210 131.600,199.994 131.600 C 200.777 131.600,205.752 126.849,223.195 109.444 C 235.408 97.259,245.797 87.087,246.283 86.839 C 247.979 85.977,248.000 86.384,248.000 119.442 C 248.000 148.187,248.058 151.001,248.662 151.669 C 249.293 152.365,250.822 152.400,281.029 152.400 C 298.467 152.400,313.005 152.504,313.335 152.630 C 314.447 153.057,312.469 155.178,290.268 177.370 C 274.718 192.914,268.400 199.482,268.400 200.104 C 268.400 200.725,275.018 207.607,291.300 223.917 C 312.820 245.473,314.153 246.890,313.424 247.428 C 312.765 247.913,307.796 248.000,280.804 248.000 C 256.570 248.000,248.845 248.115,248.480 248.480 C 248.115 248.845,248.000 256.570,248.000 280.804 C 248.000 307.796,247.913 312.765,247.428 313.424 C 246.890 314.153,245.473 312.820,223.917 291.300 C 207.723 275.134,200.723 268.400,200.111 268.400 C 199.499 268.400,192.809 274.834,177.366 290.276 C 155.136 312.504,153.056 314.443,152.630 313.335 C 152.504 313.005,152.400 298.414,152.400 280.911 C 152.400 251.073,152.356 249.055,151.700 248.557 C 151.132 248.126,145.054 248.023,119.474 248.013 C 98.976 248.004,87.683 247.858,87.190 247.595 C 85.842 246.873,87.277 245.298,109.788 222.801 C 126.859 205.741,131.600 200.788,131.600 200.013 C 131.600 199.238,126.675 194.091,108.955 176.345 C 95.877 163.247,86.386 153.442,86.489 153.134 C 86.635 152.696,92.438 152.582,118.804 152.498 C 148.011 152.405,151.009 152.335,151.671 151.736 C 152.365 151.108,152.400 149.530,152.400 119.171 C 152.400 101.623,152.509 86.980,152.643 86.632 C 153.019 85.653,154.588 87.134,177.799 110.374 M376.768 91.900 C 376.959 93.281,376.987 93.309,377.119 92.251 C 377.198 91.619,377.105 90.945,376.912 90.752 C 376.710 90.550,376.649 91.040,376.768 91.900 M23.293 92.000 C 23.293 92.770,23.375 93.085,23.476 92.700 C 23.576 92.315,23.576 91.685,23.476 91.300 C 23.375 90.915,23.293 91.230,23.293 92.000 M376.768 307.900 C 376.959 309.281,376.987 309.309,377.119 308.251 C 377.198 307.619,377.105 306.945,376.912 306.752 C 376.710 306.550,376.649 307.040,376.768 307.900 M23.293 308.000 C 23.293 308.770,23.375 309.085,23.476 308.700 C 23.576 308.315,23.576 307.685,23.476 307.300 C 23.375 306.915,23.293 307.230,23.293 308.000 " stroke="none" fill="#fcac14" fill-rule="evenodd"></path><path id="path5" d="M152.643 86.632 C 152.509 86.980,152.400 101.623,152.400 119.171 C 152.400 149.530,152.365 151.108,151.671 151.736 C 151.009 152.335,148.011 152.405,118.804 152.498 C 92.438 152.582,86.635 152.696,86.489 153.134 C 86.386 153.442,95.877 163.247,108.955 176.345 C 126.675 194.091,131.600 199.238,131.600 200.013 C 131.600 200.788,126.859 205.741,109.788 222.801 C 87.277 245.298,85.842 246.873,87.190 247.595 C 87.683 247.858,98.976 248.004,119.474 248.013 C 145.054 248.023,151.132 248.126,151.700 248.557 C 152.356 249.055,152.400 251.073,152.400 280.911 C 152.400 298.414,152.504 313.005,152.630 313.335 C 153.056 314.443,155.136 312.504,177.366 290.276 C 192.809 274.834,199.499 268.400,200.111 268.400 C 200.723 268.400,207.723 275.134,223.917 291.300 C 245.473 312.820,246.890 314.153,247.428 313.424 C 247.913 312.765,248.000 307.796,248.000 280.804 C 248.000 256.570,248.115 248.845,248.480 248.480 C 248.845 248.115,256.570 248.000,280.804 248.000 C 307.796 248.000,312.765 247.913,313.424 247.428 C 314.153 246.890,312.820 245.473,291.300 223.917 C 275.018 207.607,268.400 200.725,268.400 200.104 C 268.400 199.482,274.718 192.914,290.268 177.370 C 312.469 155.178,314.447 153.057,313.335 152.630 C 313.005 152.504,298.467 152.400,281.029 152.400 C 250.822 152.400,249.293 152.365,248.662 151.669 C 248.058 151.001,248.000 148.187,248.000 119.442 C 248.000 86.384,247.979 85.977,246.283 86.839 C 245.797 87.087,235.408 97.259,223.195 109.444 C 205.752 126.849,200.777 131.600,199.994 131.600 C 199.210 131.600,194.460 127.057,177.799 110.374 C 154.588 87.134,153.019 85.653,152.643 86.632 M176.562 110.600 L 198.353 132.400 200.104 132.400 C 201.474 132.400,202.045 132.182,202.725 131.400 C 203.203 130.850,203.764 130.400,203.970 130.400 C 204.177 130.400,204.457 130.049,204.594 129.620 C 204.730 129.192,205.183 128.733,205.600 128.600 C 206.017 128.467,206.467 128.017,206.600 127.600 C 206.733 127.183,207.183 126.733,207.600 126.600 C 208.017 126.467,208.467 126.017,208.600 125.600 C 208.733 125.183,209.183 124.733,209.600 124.600 C 210.017 124.467,210.467 124.017,210.600 123.600 C 210.733 123.183,211.183 122.733,211.600 122.600 C 212.017 122.467,212.467 122.017,212.600 121.600 C 212.733 121.183,213.183 120.733,213.600 120.600 C 214.017 120.467,214.467 120.017,214.600 119.600 C 214.733 119.183,215.183 118.733,215.600 118.600 C 216.017 118.467,216.467 118.017,216.600 117.600 C 216.733 117.183,217.183 116.733,217.600 116.600 C 218.017 116.467,218.467 116.017,218.600 115.600 C 218.733 115.183,219.183 114.733,219.600 114.600 C 220.017 114.467,220.467 114.017,220.600 113.600 C 220.733 113.183,221.183 112.733,221.600 112.600 C 222.017 112.467,222.467 112.017,222.600 111.600 C 222.733 111.183,223.183 110.733,223.600 110.600 C 224.017 110.467,224.467 110.017,224.600 109.600 C 224.733 109.183,225.183 108.733,225.600 108.600 C 226.017 108.467,226.467 108.017,226.600 107.600 C 226.733 107.183,227.183 106.733,227.600 106.600 C 228.017 106.467,228.467 106.017,228.600 105.600 C 228.733 105.183,229.183 104.733,229.600 104.600 C 230.017 104.467,230.467 104.017,230.600 103.600 C 230.733 103.183,231.183 102.733,231.600 102.600 C 232.017 102.467,232.467 102.017,232.600 101.600 C 232.733 101.183,233.183 100.733,233.600 100.600 C 234.017 100.467,234.467 100.017,234.600 99.600 C 234.733 99.183,235.183 98.733,235.600 98.600 C 236.017 98.467,236.467 98.017,236.600 97.600 C 236.733 97.183,237.183 96.733,237.600 96.600 C 238.017 96.467,238.467 96.017,238.600 95.600 C 238.733 95.183,239.183 94.733,239.600 94.600 C 240.017 94.467,240.467 94.017,240.600 93.600 C 240.733 93.183,241.183 92.733,241.600 92.600 C 242.017 92.467,242.467 92.017,242.600 91.600 C 242.733 91.183,243.183 90.733,243.600 90.600 C 244.017 90.467,244.470 90.008,244.606 89.580 C 244.743 89.151,245.202 88.800,245.627 88.800 C 246.384 88.800,246.400 89.427,246.400 119.795 L 246.400 150.789 247.900 152.184 L 249.400 153.578 280.113 153.589 C 306.651 153.599,310.856 153.679,311.049 154.184 C 311.198 154.573,304.009 162.031,289.436 176.606 C 267.889 198.155,267.600 198.465,267.600 200.039 C 267.600 201.613,267.890 201.924,289.400 223.438 C 301.390 235.431,311.200 245.503,311.200 245.821 C 311.200 246.321,306.990 246.401,280.300 246.411 L 249.400 246.422 247.900 247.816 L 246.400 249.211 246.400 280.205 C 246.400 306.983,246.321 311.200,245.821 311.200 C 245.503 311.200,235.431 301.390,223.438 289.400 C 201.924 267.890,201.613 267.600,200.039 267.600 C 198.465 267.600,198.155 267.889,176.606 289.436 C 162.031 304.009,154.573 311.198,154.184 311.049 C 153.679 310.855,153.600 306.651,153.600 280.053 L 153.600 249.280 152.160 247.840 L 150.720 246.400 119.947 246.400 C 91.425 246.400,89.156 246.351,88.915 245.724 C 88.767 245.337,88.868 244.977,89.150 244.883 C 89.422 244.793,89.860 244.458,90.122 244.140 C 90.385 243.822,90.834 243.345,91.119 243.081 C 91.405 242.816,91.855 242.366,92.119 242.081 C 92.384 241.795,92.834 241.345,93.119 241.081 C 93.405 240.816,93.855 240.366,94.119 240.081 C 94.384 239.795,94.834 239.345,95.119 239.081 C 95.405 238.816,95.855 238.366,96.119 238.081 C 96.384 237.795,96.834 237.345,97.119 237.081 C 97.405 236.816,97.855 236.366,98.119 236.081 C 98.384 235.795,98.834 235.345,99.119 235.081 C 99.405 234.816,99.855 234.366,100.119 234.081 C 100.384 233.795,100.834 233.345,101.119 233.081 C 101.405 232.816,101.855 232.366,102.119 232.081 C 102.384 231.795,102.834 231.345,103.119 231.081 C 103.405 230.816,103.855 230.366,104.119 230.081 C 104.384 229.795,104.834 229.345,105.119 229.081 C 105.405 228.816,105.855 228.366,106.119 228.081 C 106.384 227.795,106.834 227.345,107.119 227.081 C 107.405 226.816,107.855 226.366,108.119 226.081 C 108.384 225.795,108.834 225.345,109.119 225.081 C 109.405 224.816,109.855 224.366,110.119 224.081 C 110.384 223.795,110.834 223.345,111.119 223.081 C 111.405 222.816,111.855 222.366,112.119 222.081 C 112.384 221.795,112.834 221.345,113.119 221.081 C 113.405 220.816,113.855 220.366,114.119 220.081 C 114.384 219.795,114.834 219.345,115.119 219.081 C 115.405 218.816,115.855 218.366,116.119 218.081 C 116.384 217.795,116.834 217.345,117.119 217.081 C 117.405 216.816,117.855 216.366,118.119 216.081 C 118.384 215.795,118.834 215.345,119.119 215.081 C 119.405 214.816,119.855 214.366,120.119 214.081 C 120.384 213.795,120.834 213.345,121.119 213.081 C 121.405 212.816,121.855 212.366,122.119 212.081 C 122.384 211.795,122.834 211.345,123.119 211.081 C 123.405 210.816,123.855 210.366,124.119 210.081 C 124.384 209.795,124.834 209.345,125.119 209.081 C 125.405 208.816,125.855 208.366,126.119 208.081 C 126.384 207.795,126.834 207.345,127.119 207.081 C 127.405 206.816,127.855 206.366,128.119 206.081 C 128.384 205.795,128.834 205.345,129.119 205.081 C 129.405 204.816,129.855 204.363,130.119 204.072 C 130.384 203.782,131.005 203.165,131.500 202.700 C 132.168 202.074,132.400 201.404,132.400 200.104 L 132.400 198.353 110.600 176.562 C 98.610 164.576,88.800 154.616,88.800 154.428 C 88.800 153.664,91.249 153.600,120.393 153.600 L 150.720 153.600 152.160 152.160 L 153.600 150.720 153.600 120.393 C 153.600 91.249,153.664 88.800,154.428 88.800 C 154.616 88.800,164.576 98.610,176.562 110.600 " stroke="none" fill="#f4941c" fill-rule="evenodd"></path><path id="path6" d="" stroke="none" fill="#f4b824" fill-rule="evenodd"></path><path id="path7" d="" stroke="none" fill="#100b814" fill-rule="evenodd"></path><path id="path8" d="" stroke="none" fill="#100b814" fill-rule="evenodd"></path></g></svg>